<svg width="32" height="32" viewBox="0 0 32 32" fill="none" xmlns="http://www.w3.org/2000/svg">
<g clip-path="url(#clip0_2236_2000)">
<path d="M0 0C8.65 8.5 3.35 23.5 12 32C18.35 27.8 25.65 23.7 32 19.5C28.15 15.75 27.85 10.3 27 5.5C23.05 4 18.7 2 12.5 0H0Z" fill="#D9E3E8"/>
<path d="M6.5 4.4999C6.7 4.8999 6.9 5.2999 7.05 5.7499L15.15 4.2499C15 3.8999 14.85 3.5499 14.65 3.1499C12 3.6499 9.25 4.0499 6.5 4.4999ZM8.2 9.3999L16.15 7.4499C16.05 7.0499 16 6.6499 15.85 6.2999C13.2 6.8999 10.5 7.4999 7.85 8.0999C8 8.4999 8.1 8.9499 8.2 9.3999ZM8.8 13.2499C14.05 11.5999 19.35 9.9499 24.6 8.3499C24.55 7.9999 24.5 7.6499 24.45 7.3499C19.15 8.8499 13.9 10.3999 8.6 11.8999C8.7 12.2999 8.75 12.7499 8.8 13.2499Z" fill="#7D8B91"/>
<path opacity="0.5" d="M12.5 0C14.95 2.4 13.95 8.95 14.5 12C18 11.05 23.5 6.45 27 5.5C23.05 4 18.7 2 12.5 0Z" fill="#333333"/>
<path d="M11.05 25.6498C11.25 26.0498 11.4 26.4998 11.65 26.8998C14.15 25.4998 16.65 24.0498 19.15 22.6498C18.95 22.2998 18.8 21.9498 18.65 21.5498C16.1 22.9498 13.6 24.2998 11.05 25.6498Z" fill="#7D8B91"/>
<path d="M12.5 0C14.95 2.4 15.8 5.3 16.35 8.35C19.85 7.4 23.5 6.45 27 5.5C23.05 4 18.7 2 12.5 0Z" fill="#D9E3E8"/>
</g>
<defs>
<clipPath id="clip0_2236_2000">
<rect width="32" height="32" fill="white"/>
</clipPath>
</defs>
</svg>
