<svg width="18" height="16" viewBox="0 0 18 16" fill="none" xmlns="http://www.w3.org/2000/svg">
<path d="M12.7523 2.98644C11.6249 1.92558 10.0959 1.32959 8.50151 1.32959C6.90715 1.32959 5.3781 1.92558 4.25072 2.98644C3.12334 4.04731 2.48999 5.48615 2.48999 6.98644C2.48999 8.48673 3.12334 9.92558 4.25072 10.9864L7.98433 14.5064C8.05019 14.5689 8.12855 14.6185 8.21488 14.6524C8.30121 14.6862 8.39381 14.7036 8.48734 14.7036C8.58086 14.7036 8.67346 14.6862 8.7598 14.6524C8.84613 14.6185 8.92448 14.5689 8.99035 14.5064L12.7523 10.9531C13.875 9.89666 14.5057 8.46381 14.5057 6.96978C14.5057 5.47574 13.875 4.0429 12.7523 2.98644ZM11.7392 9.99978L8.50151 13.0598L5.26383 9.99978C4.62419 9.39732 4.18871 8.62994 4.01246 7.79464C3.83621 6.95933 3.92709 6.09361 4.27361 5.3069C4.62013 4.52019 5.20674 3.84781 5.95928 3.37476C6.71182 2.90171 7.5965 2.64923 8.50151 2.64923C9.40651 2.64923 10.2912 2.90171 11.0437 3.37476C11.7963 3.84781 12.3829 4.52019 12.7294 5.3069C13.0759 6.09361 13.1668 6.95933 12.9905 7.79464C12.8143 8.62994 12.3788 9.39732 11.7392 9.99978ZM6.37611 4.93978C5.80418 5.47963 5.48302 6.21082 5.48302 6.97311C5.48302 7.7354 5.80418 8.4666 6.37611 9.00644C6.80102 9.40697 7.34217 9.6805 7.93165 9.79271C8.52114 9.90493 9.13271 9.85083 9.68965 9.63721C10.2466 9.42359 10.7241 9.05996 11.0622 8.59194C11.4004 8.12392 11.5841 7.57236 11.5904 7.00644C11.5936 6.62858 11.5162 6.25395 11.3629 5.9047C11.2096 5.55545 10.9834 5.23868 10.6977 4.97311C10.417 4.70283 10.0821 4.48747 9.71257 4.33942C9.34299 4.19137 8.94595 4.11356 8.5443 4.11046C8.14264 4.10736 7.7443 4.17904 7.37219 4.32137C7.00009 4.4637 6.66157 4.67386 6.37611 4.93978ZM9.69881 8.05978C9.43033 8.31627 9.07551 8.47705 8.69501 8.51461C8.3145 8.55218 7.93195 8.4642 7.61274 8.26573C7.29354 8.06725 7.05751 7.77061 6.94502 7.4265C6.83252 7.08239 6.85054 6.7122 6.99599 6.37921C7.14144 6.04623 7.4053 5.77112 7.74245 5.60093C8.07959 5.43075 8.4691 5.37605 8.84436 5.44619C9.21962 5.51633 9.55734 5.70695 9.79977 5.98546C10.0422 6.26398 10.1743 6.61309 10.1735 6.97311C10.1632 7.38462 9.97971 7.77546 9.66339 8.05978H9.69881Z" fill="#3C3C43"/>
</svg>
