<svg width="15" height="11" viewBox="0 0 15 11" fill="none" xmlns="http://www.w3.org/2000/svg">
<mask id="mask0_2216_1818" style="mask-type:alpha" maskUnits="userSpaceOnUse" x="-2" y="-4" width="19" height="19">
<rect x="-1.83337" y="-3.66663" width="18.3333" height="18.3333" fill="#D9D9D9"/>
</mask>
<g mask="url(#mask0_2216_1818)">
<path d="M4.12498 6.41664H2.74999C2.61758 6.41664 2.50809 6.45992 2.42152 6.5465C2.33494 6.63307 2.29166 6.74256 2.29166 6.87497C2.29166 7.00738 2.33494 7.11687 2.42152 7.20344C2.50809 7.29001 2.61758 7.3333 2.74999 7.3333H4.58331C4.71317 7.3333 4.82203 7.28938 4.90987 7.20153C4.99772 7.11368 5.04164 7.00483 5.04164 6.87497V5.04164C5.04164 4.91178 4.99772 4.80293 4.90987 4.71508C4.82203 4.62724 4.71317 4.58331 4.58331 4.58331H3.20832V3.66665H4.58331C4.71572 3.66665 4.82521 3.62336 4.91178 3.53679C4.99836 3.45022 5.04164 3.34073 5.04164 3.20832C5.04164 3.07591 4.99836 2.96642 4.91178 2.87985C4.82521 2.79327 4.71572 2.74999 4.58331 2.74999H2.74999C2.61758 2.74999 2.50809 2.79327 2.42152 2.87985C2.33494 2.96642 2.29166 3.07591 2.29166 3.20832V5.04164C2.29166 5.17405 2.33494 5.28354 2.42152 5.37012C2.50809 5.45669 2.61758 5.49998 2.74999 5.49998H4.12498V6.41664ZM9.62496 5.95831C8.78468 5.95831 8.11628 6.11108 7.61976 6.41664C7.12323 6.72219 6.87497 7.12323 6.87497 7.61976V7.90621C6.87497 8.00807 6.9068 8.09082 6.97045 8.15448C7.03411 8.21814 7.11687 8.24996 7.21872 8.24996H12.0312C12.133 8.24996 12.2158 8.21814 12.2795 8.15448C12.3431 8.09082 12.3749 8.00807 12.3749 7.90621V7.61976C12.3749 7.12323 12.1267 6.72219 11.6302 6.41664C11.1336 6.11108 10.4652 5.95831 9.62496 5.95831ZM9.629 5.49998C10.0082 5.49998 10.3315 5.36495 10.5989 5.09489C10.8663 4.82482 10.9999 4.50016 10.9999 4.12093C10.9999 3.74169 10.8649 3.41839 10.5949 3.15103C10.3248 2.88367 10.0001 2.74999 9.62091 2.74999C9.24167 2.74999 8.91836 2.88502 8.651 3.15508C8.38364 3.42515 8.24996 3.7498 8.24996 4.12903C8.24996 4.50827 8.38499 4.83158 8.65505 5.09894C8.92512 5.3663 9.24977 5.49998 9.629 5.49998ZM1.37499 11C0.99687 11 0.673174 10.8653 0.403904 10.596C0.134635 10.3268 0 10.0031 0 9.62496V1.37499C0 0.996871 0.134635 0.673175 0.403904 0.403905C0.673174 0.134635 0.99687 0 1.37499 0H13.2916C13.6697 0 13.9934 0.134635 14.2627 0.403905C14.532 0.673175 14.6666 0.996871 14.6666 1.37499V9.62496C14.6666 10.0031 14.532 10.3268 14.2627 10.596C13.9934 10.8653 13.6697 11 13.2916 11H1.37499ZM1.37499 9.62496H13.2916V1.37499H1.37499V9.62496Z" fill="#8A8A8E"/>
</g>
</svg>
