<svg width="11" height="16" viewBox="0 0 11 16" fill="none" xmlns="http://www.w3.org/2000/svg">
<mask id="mask0_2216_1580" style="mask-type:alpha" maskUnits="userSpaceOnUse" x="-4" y="-1" width="19" height="19">
<rect x="-3.66675" y="-0.916687" width="18.3333" height="18.3333" fill="#D9D9D9"/>
</mask>
<g mask="url(#mask0_2216_1580)">
<path d="M1.36959 15.5833C0.99125 15.5833 0.6684 15.4486 0.40104 15.1794C0.13368 14.9101 0 14.5864 0 14.2083V6.87497C0 6.49685 0.134635 6.17315 0.403904 5.90388C0.673174 5.63461 0.996871 5.49998 1.37499 5.49998H1.83333V3.66665C1.83333 2.65221 2.19124 1.78749 2.90708 1.07249C3.62292 0.357498 4.48865 0 5.50429 0C6.51993 0 7.38423 0.357498 8.09719 1.07249C8.81015 1.78749 9.16663 2.65221 9.16663 3.66665V5.49998H9.62496C10.0031 5.49998 10.3268 5.63461 10.596 5.90388C10.8653 6.17315 11 6.49685 11 6.87497V14.2083C11 14.5864 10.8652 14.9101 10.5958 15.1794C10.3264 15.4486 10.0025 15.5833 9.62419 15.5833H1.36959ZM1.37499 14.2083H9.62496V6.87497H1.37499V14.2083ZM5.50402 11.9166C5.88327 11.9166 6.20657 11.7816 6.47393 11.5115C6.74129 11.2415 6.87497 10.9168 6.87497 10.5376C6.87497 10.1583 6.73994 9.83502 6.46988 9.56767C6.19981 9.30031 5.87516 9.16663 5.49593 9.16663C5.11668 9.16663 4.79338 9.30166 4.52602 9.57171C4.25866 9.84179 4.12498 10.1664 4.12498 10.5457C4.12498 10.9249 4.26001 11.2482 4.53007 11.5156C4.80014 11.7829 5.12479 11.9166 5.50402 11.9166ZM3.20832 5.49998H7.79163V3.66665C7.79163 3.03008 7.56883 2.48899 7.12323 2.04339C6.67763 1.59779 6.13655 1.37499 5.49998 1.37499C4.8634 1.37499 4.32232 1.59779 3.87672 2.04339C3.43112 2.48899 3.20832 3.03008 3.20832 3.66665V5.49998Z" fill="#3E4648"/>
</g>
</svg>
