<svg width="13" height="13" viewBox="0 0 13 13" fill="none" xmlns="http://www.w3.org/2000/svg">
<mask id="mask0_2216_1589" style="mask-type:alpha" maskUnits="userSpaceOnUse" x="-3" y="-3" width="19" height="19">
<rect x="-2.77989" y="-2.78467" width="18.5648" height="18.5648" fill="#D9D9D9"/>
</mask>
<g mask="url(#mask0_2216_1589)">
<path d="M11.9752 12.976C10.4152 12.86 8.93584 12.4765 7.53703 11.8254C6.13823 11.1743 4.88446 10.2944 3.77573 9.18571C2.667 8.07698 1.79355 6.82644 1.15538 5.43407C0.517216 4.04171 0.133672 2.56555 0.00474969 1.00559C-0.0210348 0.734857 0.0581621 0.499574 0.242341 0.299744C0.426506 0.0999148 0.656723 0 0.93299 0H3.563C3.78217 0 3.97233 0.0676842 4.13349 0.203053C4.29464 0.338421 4.401 0.509243 4.45257 0.715519L4.91669 2.76538C4.94247 2.93298 4.9328 3.09413 4.88768 3.24884C4.84256 3.40355 4.76843 3.53247 4.66529 3.63561L2.78947 5.53077C3.04732 6.02067 3.34384 6.49124 3.67903 6.94247C4.01423 7.39369 4.38791 7.81903 4.80006 8.21849C5.18723 8.60546 5.59998 8.96332 6.03831 9.29207C6.47665 9.62083 6.94077 9.91412 7.43067 10.172L9.34517 8.31549C9.44831 8.21235 9.57723 8.13822 9.73194 8.0931C9.88664 8.04797 10.0478 8.0383 10.2154 8.06409L12.2846 8.50887C12.5038 8.57333 12.6778 8.68614 12.8067 8.84729C12.9357 9.00845 13.0001 9.19861 13.0001 9.41777V12.0478C13.0001 12.3241 12.897 12.5543 12.6907 12.7384C12.4844 12.9226 12.2459 13.0018 11.9752 12.976ZM2.15131 4.17708L3.50499 2.8234L3.17314 1.39236H1.43579C1.50025 1.88227 1.59049 2.35605 1.70652 2.81373C1.82255 3.2714 1.97081 3.72585 2.15131 4.17708ZM8.8037 10.8295C9.25621 11.0131 9.71743 11.1589 10.1874 11.2669C10.6573 11.375 11.1307 11.4612 11.6078 11.5257V9.7852L10.1574 9.47579L8.8037 10.8295Z" fill="#3E4648"/>
</g>
</svg>
