<svg width="26" height="24" viewBox="0 0 26 24" fill="none" xmlns="http://www.w3.org/2000/svg">
<path d="M6.68441 14.29L6.37623 14.59V7C6.37623 6.73478 6.26426 6.48043 6.06497 6.29289C5.86568 6.10536 5.59537 6 5.31353 6C5.03169 6 4.76138 6.10536 4.56209 6.29289C4.3628 6.48043 4.25083 6.73478 4.25083 7V14.59L3.94265 14.29C3.74254 14.1017 3.47114 13.9959 3.18814 13.9959C2.90514 13.9959 2.63373 14.1017 2.43362 14.29C2.23351 14.4783 2.12109 14.7337 2.12109 15C2.12109 15.2663 2.23351 15.5217 2.43362 15.71L4.55902 17.71C4.66008 17.801 4.77926 17.8724 4.90971 17.92C5.03691 17.9729 5.17445 18.0002 5.31353 18.0002C5.45261 18.0002 5.59015 17.9729 5.71735 17.92C5.8478 17.8724 5.96698 17.801 6.06804 17.71L8.19344 15.71C8.29252 15.6168 8.37112 15.5061 8.42474 15.3842C8.47837 15.2624 8.50597 15.1319 8.50597 15C8.50597 14.8681 8.47837 14.7376 8.42474 14.6158C8.37112 14.4939 8.29252 14.3832 8.19344 14.29C8.09435 14.1968 7.97672 14.1228 7.84726 14.0723C7.7178 14.0219 7.57905 13.9959 7.43892 13.9959C7.2988 13.9959 7.16004 14.0219 7.03058 14.0723C6.90112 14.1228 6.78349 14.1968 6.68441 14.29ZM11.6897 8H22.3167C22.5985 8 22.8688 7.89464 23.0681 7.70711C23.2674 7.51957 23.3794 7.26522 23.3794 7C23.3794 6.73478 23.2674 6.48043 23.0681 6.29289C22.8688 6.10536 22.5985 6 22.3167 6H11.6897C11.4079 6 11.1376 6.10536 10.9383 6.29289C10.739 6.48043 10.627 6.73478 10.627 7C10.627 7.26522 10.739 7.51957 10.9383 7.70711C11.1376 7.89464 11.4079 8 11.6897 8ZM22.3167 11H11.6897C11.4079 11 11.1376 11.1054 10.9383 11.2929C10.739 11.4804 10.627 11.7348 10.627 12C10.627 12.2652 10.739 12.5196 10.9383 12.7071C11.1376 12.8946 11.4079 13 11.6897 13H22.3167C22.5985 13 22.8688 12.8946 23.0681 12.7071C23.2674 12.5196 23.3794 12.2652 23.3794 12C23.3794 11.7348 23.2674 11.4804 23.0681 11.2929C22.8688 11.1054 22.5985 11 22.3167 11ZM22.3167 16H11.6897C11.4079 16 11.1376 16.1054 10.9383 16.2929C10.739 16.4804 10.627 16.7348 10.627 17C10.627 17.2652 10.739 17.5196 10.9383 17.7071C11.1376 17.8946 11.4079 18 11.6897 18H22.3167C22.5985 18 22.8688 17.8946 23.0681 17.7071C23.2674 17.5196 23.3794 17.2652 23.3794 17C23.3794 16.7348 23.2674 16.4804 23.0681 16.2929C22.8688 16.1054 22.5985 16 22.3167 16Z" fill="#8A8A8E"/>
</svg>
