<svg width="13" height="13" viewBox="0 0 13 13" fill="none" xmlns="http://www.w3.org/2000/svg">
<mask id="mask0_2216_1562" style="mask-type:alpha" maskUnits="userSpaceOnUse" x="-3" y="-4" width="19" height="19">
<rect x="-2.71299" y="-3.27821" width="18.087" height="18.087" fill="#D9D9D9"/>
</mask>
<g mask="url(#mask0_2216_1562)">
<path d="M0 11.6426V4.85558C0 4.48229 0.132826 4.16377 0.398478 3.9C0.66413 3.63623 0.983478 3.50435 1.35652 3.50435H3.61739V2.71723C3.61739 2.53859 3.64879 2.36763 3.71159 2.20435C3.7744 2.04106 3.87488 1.89034 4.01304 1.75217L5.36957 0.395652C5.63333 0.131884 5.95362 0 6.33043 0C6.70725 0 7.02754 0.131884 7.2913 0.395652L8.64783 1.75217C8.78599 1.89034 8.88647 2.04109 8.94928 2.20442C9.01208 2.36776 9.04348 2.53954 9.04348 2.71977V6.21739H11.3043C11.6774 6.21739 11.9967 6.35034 12.2624 6.61625C12.528 6.88215 12.6609 7.2018 12.6609 7.57519V11.6486C12.6609 12.022 12.528 12.3406 12.2624 12.6043C11.9967 12.8681 11.6774 13 11.3043 13H1.35652C0.983478 13 0.66413 12.8671 0.398478 12.6013C0.132826 12.3354 0 12.0159 0 11.6426ZM1.35652 11.6435H2.71304V10.287H1.35652V11.6435ZM1.35652 8.93043H2.71304V7.57391H1.35652V8.93043ZM1.35652 6.21739H2.71304V4.86087H1.35652V6.21739ZM5.65217 11.6435H7.0087V10.287H5.65217V11.6435ZM5.65217 8.93043H7.0087V7.57391H5.65217V8.93043ZM5.65217 6.21739H7.0087V4.86087H5.65217V6.21739ZM5.65217 3.50435H7.0087V2.14783H5.65217V3.50435ZM9.94783 11.6435H11.3043V10.287H9.94783V11.6435ZM9.94783 8.93043H11.3043V7.57391H9.94783V8.93043Z" fill="#3E4648"/>
</g>
</svg>
