<svg width="32" height="32" viewBox="0 0 32 32" fill="none" xmlns="http://www.w3.org/2000/svg">
<path d="M24 29.3335H5.33331V5.3335H18.6666L24 10.6668V29.3335Z" fill="#42A5F5"/>
<path d="M26.6667 26.6665H8V2.6665H21.3333L26.6667 7.99984V26.6665Z" fill="#90CAF9"/>
<path d="M25.6667 8.6665H20.6667V3.6665L25.6667 8.6665Z" fill="#E1F5FE"/>
<path d="M16.3333 18.8669C16.3333 15.7335 18.7333 15.9335 18.7333 14.0669C18.7333 13.6002 18.6 12.6669 17.4 12.6669C16.0667 12.6669 16 13.7335 16 14.0002H14.2C14.2 13.5335 14.4 11.2002 17.4 11.2002C20.4667 11.2002 20.5333 13.6002 20.5333 14.0669C20.5333 16.4002 18 16.7335 18 18.9335H16.3333V18.8669ZM16.2 21.2002C16.2 21.0669 16.2 20.2002 17.2 20.2002C18.1333 20.2002 18.2 21.0669 18.2 21.2002C18.2 21.4669 18.0667 22.1335 17.2 22.1335C16.3333 22.1335 16.2 21.4669 16.2 21.2002Z" fill="#1976D2"/>
</svg>
