<svg width="225" height="224" viewBox="0 0 225 224" fill="none" xmlns="http://www.w3.org/2000/svg">
<path d="M16.4648 214.244C15.7831 213.661 14.2636 211.809 15.424 209.66C15.8559 208.869 16.7666 208.478 17.594 208.13C18.4447 207.842 19.2466 207.426 19.9721 206.896C21.2574 205.804 21.6165 203.982 22.4699 202.52C23.4534 200.839 25.2851 199.58 27.2209 199.668C29.4378 199.767 31.2903 201.583 32.1281 203.644C32.9659 205.705 32.9971 208.005 33.0127 210.237C33.0127 211.471 32.9659 212.839 32.0605 213.693C31.155 214.546 29.9946 214.458 28.8393 214.458L16.7197 214.083" fill="#F5F5F5"/>
<path d="M39.6371 180.914H7.75881L13.4829 215.155C13.6021 215.868 13.921 216.532 14.4028 217.071C14.8845 217.61 15.5093 218.001 16.2045 218.199C16.2402 218.212 16.2767 218.222 16.3138 218.23C16.4077 218.26 16.5033 218.284 16.6 218.303C16.8125 218.348 17.0283 218.374 17.2453 218.381V218.412L17.4014 218.386H31.6077C32.5732 218.384 33.5063 218.038 34.2404 217.411C34.9744 216.783 35.4615 215.916 35.6146 214.962L38.383 191.374L38.5079 190.437L39.6059 181.096L39.6371 180.914ZM33.6371 202.754H30.3536L30.6814 192.82H34.4697L33.6371 202.754ZM34.8028 192.82H37.925L36.7594 202.754H33.939L34.8028 192.82ZM25.436 213.771L25.2383 205.137H29.9217L29.6354 213.771H25.436ZM20.3467 205.137H24.9208L25.1238 213.771H21.0232L20.3467 205.137ZM20.7006 213.771H16.8654C16.5011 211.439 16.0276 208.411 15.5124 205.137H20.0345L20.7006 213.771ZM20.1802 202.754L19.41 192.82H24.645L24.874 202.754H20.1802ZM25.207 202.754L24.9781 192.82H30.364L30.0361 202.754H25.207ZM24.9208 190.437L24.7075 181.237H30.749L30.442 190.437H24.9208ZM24.6034 190.437H19.2071L18.4942 181.237H24.3796L24.6034 190.437ZM18.8793 190.437H13.1967C12.9938 189.167 12.8065 187.96 12.6347 186.877C12.0363 183.157 11.8125 181.762 11.6929 181.237H18.1767L18.8793 190.437ZM19.0666 192.82L19.8368 202.754H15.1534C14.9972 201.745 14.8359 200.725 14.6746 199.705C14.3051 197.363 13.9357 195.021 13.5922 192.82H19.0666ZM14.8099 202.754H11.7449L10.0797 192.82H13.254C13.7379 195.89 14.2791 199.309 14.8203 202.754H14.8099ZM15.1846 205.137C15.6529 208.124 16.1161 211.07 16.5376 213.771H13.5922L12.1456 205.137H15.1846ZM29.9945 213.771L30.2807 205.137H33.403L32.664 213.771H29.9945ZM30.7699 190.437L31.0769 181.237H35.4689L34.6779 190.437H30.7699ZM11.391 181.237C11.5159 181.897 12.0987 185.519 12.8793 190.437H9.69981L8.13868 181.237H11.391ZM35.4637 213.771H32.9971L33.736 205.137H36.4732L35.4637 213.771ZM38.2008 190.437H34.9901L35.7811 181.237H39.278L38.2008 190.437Z" fill="#E0E0E0"/>
<path d="M142.734 156.94H60.8683V194.699H142.734V156.94Z" fill="#F5F5F5"/>
<path d="M140.788 192.914H62.7311V158.923H140.788V192.914ZM63.2515 192.393H140.267V159.433H63.2515V192.393Z" fill="#E0E0E0"/>
<path d="M162.738 156.94H142.74V194.699H162.738V156.94Z" fill="#E0E0E0"/>
<path d="M62.9968 169.445H140.533C140.561 169.445 140.587 169.434 140.607 169.414C140.626 169.395 140.637 169.368 140.637 169.341C140.637 169.313 140.626 169.287 140.607 169.267C140.587 169.248 140.561 169.237 140.533 169.237H62.9968C62.9692 169.237 62.9427 169.248 62.9232 169.267C62.9037 169.287 62.8927 169.313 62.8927 169.341C62.8927 169.368 62.9037 169.395 62.9232 169.414C62.9427 169.434 62.9692 169.445 62.9968 169.445Z" fill="#E0E0E0"/>
<path d="M102.02 169.341C102.237 165.925 102.246 162.5 102.046 159.084C102.046 159.056 102.035 159.03 102.016 159.01C101.996 158.991 101.97 158.98 101.942 158.98C101.914 158.98 101.888 158.991 101.868 159.01C101.849 159.03 101.838 159.056 101.838 159.084C101.638 162.5 101.647 165.925 101.864 169.341C101.864 169.361 101.872 169.381 101.887 169.396C101.901 169.41 101.921 169.419 101.942 169.419C101.963 169.419 101.983 169.41 101.997 169.396C102.012 169.381 102.02 169.361 102.02 169.341Z" fill="#E0E0E0"/>
<path d="M122.892 164.215C122.892 164.421 122.831 164.622 122.717 164.793C122.603 164.964 122.44 165.098 122.25 165.176C122.06 165.255 121.85 165.276 121.649 165.236C121.447 165.196 121.261 165.096 121.116 164.951C120.97 164.805 120.871 164.62 120.831 164.418C120.791 164.216 120.811 164.007 120.89 163.817C120.969 163.626 121.102 163.464 121.273 163.35C121.445 163.235 121.646 163.174 121.852 163.174C122.128 163.174 122.392 163.284 122.587 163.479C122.783 163.674 122.892 163.939 122.892 164.215Z" fill="#E0E0E0"/>
<path d="M82.1989 164.215C82.1989 164.421 82.1378 164.622 82.0235 164.793C81.9091 164.964 81.7466 165.098 81.5564 165.176C81.3662 165.255 81.157 165.276 80.9551 165.236C80.7532 165.196 80.5677 165.096 80.4222 164.951C80.2766 164.805 80.1775 164.62 80.1374 164.418C80.0972 164.216 80.1178 164.007 80.1966 163.817C80.2754 163.626 80.4088 163.464 80.5799 163.35C80.7511 163.235 80.9523 163.174 81.1581 163.174C81.4341 163.174 81.6989 163.284 81.894 163.479C82.0892 163.674 82.1989 163.939 82.1989 164.215Z" fill="#E0E0E0"/>
<path d="M102.847 175.919C102.847 176.124 102.786 176.326 102.672 176.497C102.558 176.668 102.395 176.801 102.205 176.88C102.015 176.959 101.805 176.979 101.604 176.939C101.402 176.899 101.216 176.8 101.071 176.654C100.925 176.509 100.826 176.323 100.786 176.122C100.746 175.92 100.766 175.71 100.845 175.52C100.924 175.33 101.057 175.168 101.228 175.053C101.4 174.939 101.601 174.878 101.807 174.878C102.083 174.878 102.347 174.987 102.543 175.183C102.738 175.378 102.847 175.643 102.847 175.919Z" fill="#E0E0E0"/>
<path d="M70.6561 194.693L66.4411 218.396H68.814L76.5832 194.693H70.6561Z" fill="#E0E0E0"/>
<path d="M136.947 194.693L140.47 218.438H138.097L131.02 194.693H136.947Z" fill="#E0E0E0"/>
<path d="M152.772 194.693L156.763 218.438H154.396L146.845 194.693H152.772Z" fill="#E0E0E0"/>
<path d="M102.753 186.607C102.753 186.813 102.692 187.014 102.578 187.185C102.463 187.356 102.301 187.49 102.111 187.569C101.92 187.647 101.711 187.668 101.509 187.628C101.307 187.588 101.122 187.489 100.976 187.343C100.831 187.197 100.732 187.012 100.692 186.81C100.651 186.608 100.672 186.399 100.751 186.209C100.83 186.019 100.963 185.856 101.134 185.742C101.305 185.627 101.507 185.566 101.712 185.566C101.988 185.566 102.253 185.676 102.448 185.871C102.643 186.066 102.753 186.331 102.753 186.607Z" fill="#E0E0E0"/>
<path d="M62.9968 181.153H140.533C140.561 181.153 140.587 181.142 140.607 181.123C140.626 181.103 140.637 181.077 140.637 181.049C140.637 181.022 140.626 180.995 140.607 180.976C140.587 180.956 140.561 180.945 140.533 180.945H62.9968C62.9692 180.945 62.9427 180.956 62.9232 180.976C62.9037 180.995 62.8927 181.022 62.8927 181.049C62.8927 181.077 62.9037 181.103 62.9232 181.123C62.9427 181.142 62.9692 181.153 62.9968 181.153Z" fill="#E0E0E0"/>
<path d="M118.023 144.113L117.996 139.075L93.2424 139.205L93.2687 144.242L118.023 144.113Z" fill="#E0E0E0"/>
<path d="M120.999 156.825L120.958 148.993L93.3678 149.138L93.4088 156.97L120.999 156.825Z" fill="#F5F5F5"/>
<path d="M115.69 156.779C115.553 155.479 115.508 154.172 115.555 152.866C115.508 151.558 115.553 150.248 115.69 148.947C115.821 150.249 115.864 151.558 115.82 152.866C115.864 154.171 115.821 155.479 115.69 156.779Z" fill="#E0E0E0"/>
<path d="M116.845 156.779C116.715 155.479 116.671 154.171 116.715 152.866C116.671 151.558 116.715 150.249 116.845 148.947C116.979 150.249 117.024 151.558 116.98 152.866C117.024 154.172 116.979 155.479 116.845 156.779Z" fill="#E0E0E0"/>
<path d="M97.5653 156.779C97.4314 155.479 97.3862 154.172 97.43 152.866C97.3861 151.558 97.4313 150.249 97.5653 148.947C97.6992 150.249 97.7444 151.558 97.7006 152.866C97.7443 154.172 97.6991 155.479 97.5653 156.779Z" fill="#E0E0E0"/>
<path d="M98.7257 156.779C98.5888 155.479 98.5436 154.172 98.5904 152.866C98.5435 151.558 98.5887 150.248 98.7257 148.947C98.8562 150.249 98.8997 151.558 98.8558 152.866C98.8996 154.171 98.8561 155.479 98.7257 156.779Z" fill="#E0E0E0"/>
<path d="M101.255 152.991C101.255 152.918 104.033 152.855 107.468 152.855C110.902 152.855 113.712 152.918 113.712 152.991C113.712 153.063 110.928 153.126 107.468 153.126C104.007 153.126 101.255 153.053 101.255 152.991Z" fill="#E0E0E0"/>
<path d="M131.358 148.953L131.332 143.916L97.2892 144.094L97.3156 149.131L131.358 148.953Z" fill="#EBEBEB"/>
<path d="M126.488 148.333C126.165 148.337 125.848 148.245 125.578 148.069C125.307 147.892 125.095 147.639 124.969 147.342C124.842 147.045 124.807 146.717 124.867 146.399C124.928 146.082 125.081 145.79 125.308 145.56C125.535 145.33 125.825 145.173 126.142 145.108C126.458 145.044 126.787 145.075 127.086 145.197C127.385 145.32 127.64 145.529 127.82 145.797C128 146.065 128.096 146.381 128.096 146.704C128.098 146.917 128.057 147.127 127.977 147.324C127.897 147.521 127.779 147.7 127.63 147.852C127.48 148.003 127.303 148.123 127.107 148.206C126.911 148.288 126.701 148.332 126.488 148.333Z" fill="#E0E0E0"/>
<path d="M122.065 147.209V146.2H99.2774V147.209H122.065Z" fill="#E0E0E0"/>
<path d="M133.396 55.4079C138.377 44.2364 133.358 31.1423 122.187 26.1614C111.015 21.1805 97.9211 26.199 92.9403 37.3705C87.9594 48.542 92.9779 61.6361 104.149 66.617C115.321 71.5978 128.415 66.5793 133.396 55.4079Z" fill="#FAFAFA"/>
<path d="M118.18 56.2567C123.631 53.4849 125.804 46.8186 123.032 41.3669C120.26 35.9153 113.594 33.7428 108.142 36.5146C102.691 39.2863 100.518 45.9527 103.29 51.4043C106.062 56.856 112.728 59.0284 118.18 56.2567Z" fill="#E0E0E0"/>
<path d="M203.748 179.821C203.808 176.592 205.055 173.499 207.25 171.131C208.307 175.491 203.748 179.821 203.748 179.821Z" fill="#EBEBEB"/>
<path d="M208.827 177.365C211.811 176.129 215.146 176.036 218.194 177.105C214.619 179.811 208.827 177.365 208.827 177.365Z" fill="#EBEBEB"/>
<path d="M209.41 174.534C208.924 172.032 209.376 169.439 210.68 167.249C212.215 170.449 209.41 174.534 209.41 174.534Z" fill="#EBEBEB"/>
<path d="M189.75 164.34C197.192 166.317 201.199 172.775 201.199 172.775C194.824 172.775 189.75 164.34 189.75 164.34Z" fill="#EBEBEB"/>
<path d="M201.625 167.384C201.24 159.381 209.061 150.321 209.061 150.321C207.88 160.26 201.625 167.384 201.625 167.384Z" fill="#EBEBEB"/>
<path d="M201.584 144.586C201.734 148.59 200.761 152.556 198.774 156.035C197.67 150.904 201.584 144.586 201.584 144.586Z" fill="#EBEBEB"/>
<path d="M198.597 160.858C192.743 160.234 189.558 154.411 189.558 154.411C196.609 156.383 198.597 160.858 198.597 160.858Z" fill="#EBEBEB"/>
<path d="M185.946 185.316C188.691 183.615 191.966 182.983 195.146 183.542C192.055 186.799 185.946 185.316 185.946 185.316Z" fill="#EBEBEB"/>
<path d="M201.11 187.95C200.364 189.843 198.972 191.412 197.181 192.378C197.431 189.677 201.11 187.95 201.11 187.95Z" fill="#EBEBEB"/>
<path d="M200.361 187.086C198.247 188.311 195.769 188.753 193.362 188.334C195.615 185.988 200.361 187.086 200.361 187.086Z" fill="#EBEBEB"/>
<path d="M203.353 197.863C203.347 197.823 203.347 197.783 203.353 197.743C203.353 197.644 203.353 197.529 203.353 197.394C203.353 197.061 203.353 196.614 203.353 196.052C203.353 195.49 203.353 194.756 203.353 193.928C203.353 193.101 203.353 192.159 203.296 191.118C203.244 189.037 203.098 186.565 202.885 183.833C202.671 181.101 202.312 178.083 201.844 174.94C200.892 168.664 199.637 163.029 198.597 158.99C198.076 156.971 197.655 155.348 197.343 154.224C197.192 153.677 197.077 153.245 196.989 152.928L196.906 152.59C196.901 152.55 196.901 152.51 196.906 152.47C196.927 152.505 196.943 152.544 196.952 152.585L197.062 152.912L197.457 154.193C197.806 155.306 198.264 156.93 198.8 158.944C200.184 164.201 201.279 169.531 202.078 174.909C202.536 178.031 202.864 181.07 203.088 183.818C203.311 186.565 203.415 189.047 203.441 191.134C203.478 192.175 203.467 193.117 203.441 193.944C203.415 194.771 203.441 195.505 203.41 196.067C203.379 196.629 203.374 197.082 203.363 197.41C203.363 197.55 203.363 197.665 203.363 197.758L203.353 197.863Z" fill="#E0E0E0"/>
<path d="M192.612 180.919C192.654 180.857 195.016 182.407 197.894 184.38C200.772 186.352 203.067 187.996 203.025 188.059C202.983 188.121 200.621 186.571 197.743 184.598C194.866 182.626 192.571 180.976 192.612 180.919Z" fill="#E0E0E0"/>
<path d="M203.024 181.773C203.129 181.625 203.251 181.49 203.389 181.372L204.429 180.357L207.947 177.058C209.295 175.794 210.513 174.649 211.465 173.764L212.506 172.76C212.631 172.63 212.77 172.515 212.922 172.416C212.826 172.569 212.711 172.709 212.578 172.833C212.35 173.093 212.001 173.452 211.569 173.873C210.705 174.758 209.487 175.955 208.103 177.23C206.719 178.505 205.46 179.66 204.533 180.477C204.07 180.883 203.69 181.206 203.42 181.429C203.302 181.559 203.169 181.674 203.024 181.773Z" fill="#E0E0E0"/>
<path d="M185.098 177.126C185.098 177.126 191.145 177.011 193.705 181.767C192.008 181.719 190.346 181.273 188.851 180.467C187.357 179.661 186.071 178.517 185.098 177.126Z" fill="#EBEBEB"/>
<path d="M193.357 174.695C193.357 174.695 198.279 178.208 197.52 183.542C196.184 182.493 195.112 181.148 194.39 179.612C193.667 178.076 193.313 176.392 193.357 174.695Z" fill="#EBEBEB"/>
<path d="M219.292 166.062C219.292 166.062 217.351 172.827 211.174 174.05C211.811 172.178 212.877 170.481 214.286 169.095C215.696 167.708 217.41 166.669 219.292 166.062Z" fill="#EBEBEB"/>
<path d="M190.671 140.876C190.671 140.876 198.389 145.908 197.556 154.094C195.457 152.58 193.741 150.597 192.546 148.302C191.35 146.007 190.708 143.464 190.671 140.876Z" fill="#EBEBEB"/>
<path d="M216.352 185.644C216.193 185.795 216.019 185.93 215.831 186.045C215.498 186.284 215.025 186.643 214.447 187.085C212.954 188.279 211.562 189.593 210.284 191.014C209.01 192.443 207.855 193.973 206.829 195.588C206.439 196.208 206.132 196.718 205.929 197.077C205.831 197.262 205.714 197.436 205.58 197.597C205.645 197.393 205.73 197.196 205.835 197.009C206.012 196.634 206.298 196.109 206.673 195.448C208.647 192.121 211.257 189.216 214.354 186.898C214.947 186.456 215.441 186.118 215.79 185.904C215.968 185.799 216.156 185.711 216.352 185.644Z" fill="#E0E0E0"/>
<path d="M209.634 190.671C209.075 187.49 209.707 184.215 211.408 181.471C212.236 187.205 209.634 190.671 209.634 190.671Z" fill="#EBEBEB"/>
<path d="M214.827 187.84C216.868 186.68 219.265 186.309 221.561 186.799C217.851 188.771 214.827 187.84 214.827 187.84Z" fill="#EBEBEB"/>
<path d="M192.102 198.487L194.996 217.512H211.814L215.717 198.763L192.102 198.487Z" fill="#EBEBEB"/>
<path d="M213.365 210.679C213.365 210.737 209.057 210.778 203.744 210.778C198.431 210.778 194.117 210.737 194.117 210.679C194.117 210.622 198.425 210.581 203.744 210.581C209.062 210.581 213.365 210.627 213.365 210.679Z" fill="#FAFAFA"/>
<path d="M213.432 209.774C213.432 209.826 209.092 209.873 203.743 209.873C198.393 209.873 194.048 209.826 194.048 209.774C194.048 209.722 198.388 209.675 203.743 209.675C209.098 209.675 213.432 209.691 213.432 209.774Z" fill="#FAFAFA"/>
<path d="M213.396 208.692C213.396 208.744 209.061 208.79 203.706 208.79C198.352 208.79 194.017 208.744 194.017 208.692C194.017 208.64 198.357 208.593 203.706 208.593C209.056 208.593 213.396 208.634 213.396 208.692Z" fill="#FAFAFA"/>
<path d="M196.926 216.43C196.692 215.644 196.518 214.843 196.406 214.031C196.236 213.232 196.128 212.421 196.083 211.606C196.497 213.188 196.777 214.801 196.921 216.43H196.926Z" fill="#FAFAFA"/>
<path d="M198.076 216.227C197.957 215.453 197.887 214.673 197.868 213.89C197.78 213.111 197.743 212.327 197.759 211.543C198.062 213.085 198.169 214.659 198.076 216.227Z" fill="#FAFAFA"/>
<path d="M200.158 216.227C199.931 215.444 199.784 214.64 199.721 213.828C199.592 213.024 199.549 212.21 199.591 211.397C199.746 212.193 199.853 212.998 199.913 213.807C200.039 214.608 200.121 215.416 200.158 216.227Z" fill="#FAFAFA"/>
<path d="M201.62 216.325C201.461 215.523 201.382 214.708 201.386 213.89C201.326 213.074 201.352 212.255 201.464 211.444C201.549 212.255 201.589 213.07 201.583 213.885C201.643 214.697 201.655 215.512 201.62 216.325Z" fill="#FAFAFA"/>
<path d="M204.211 216.227C204.088 215.463 204.028 214.69 204.034 213.916C203.968 213.144 203.968 212.367 204.034 211.595C204.158 212.361 204.217 213.135 204.211 213.911C204.278 214.681 204.278 215.456 204.211 216.227Z" fill="#FAFAFA"/>
<path d="M206.105 216.325C206.01 215.533 205.984 214.734 206.027 213.937C206.002 213.139 206.041 212.34 206.142 211.548C206.238 212.341 206.264 213.14 206.22 213.937C206.245 214.735 206.207 215.533 206.105 216.325Z" fill="#FAFAFA"/>
<path d="M207.88 216.07C207.861 215.235 207.908 214.4 208.021 213.573C208.068 212.739 208.183 211.911 208.364 211.096C208.38 211.931 208.332 212.766 208.218 213.593C208.168 214.426 208.055 215.254 207.88 216.07Z" fill="#FAFAFA"/>
<path d="M210.17 215.821C210.169 215.104 210.263 214.39 210.451 213.698C210.57 212.99 210.78 212.301 211.075 211.647C210.97 212.349 210.826 213.044 210.643 213.729C210.524 214.434 210.366 215.133 210.17 215.821Z" fill="#FAFAFA"/>
<path d="M190.171 194.725V198.284C190.171 198.655 190.319 199.011 190.581 199.274C190.844 199.536 191.2 199.684 191.571 199.684H215.925C216.296 199.684 216.653 199.536 216.916 199.274C217.18 199.012 217.328 198.656 217.33 198.284V194.725H190.171Z" fill="#EBEBEB"/>
<path d="M192.284 199.684L192.482 200.818L214.957 202.421L215.524 199.684H192.284Z" fill="#E0E0E0"/>
<path d="M216.107 218.001C216.107 218.079 169.591 218.136 112.219 218.136C54.8477 218.136 8.32082 218.1 8.32082 218.001C8.32082 217.902 54.8269 217.866 112.219 217.866C169.612 217.866 216.107 217.928 216.107 218.001Z" fill="#263238"/>
<path d="M0 63.9332C0 63.9332 5.33386 85.7891 29.2087 80.7726C29.2087 80.7726 22.2929 58.6514 0 63.9332Z" fill="#83BF4F"/>
<path d="M11.5366 97.0187C11.5366 97.0187 22.4958 113.359 40.6049 102.056C40.6049 102.056 28.2564 85.9659 11.5366 97.0187Z" fill="#83BF4F"/>
<path d="M29.0006 121.95C29.0006 121.95 44.9917 135.548 60.3064 118.693C60.3064 118.708 42.9623 105.751 29.0006 121.95Z" fill="#83BF4F"/>
<path d="M45.528 69.4958C45.528 69.4958 27.7935 78.0195 36.4006 97.5545C37.6651 96.852 53.9321 87.2458 45.528 69.4958Z" fill="#83BF4F"/>
<path d="M49.3789 93.0481C49.3789 93.0481 40.5325 104.991 53.7137 115.247C54.5359 113.967 62.2583 102.576 49.3789 93.0481Z" fill="#83BF4F"/>
<path d="M8.35709 38.7887C8.35709 38.7887 6.32242 56.4815 25.4463 59.3331C25.4463 59.3331 26.3777 40.9846 8.35709 38.7887Z" fill="#83BF4F"/>
<path d="M35.7863 20.877C35.7863 20.877 20.3155 27.3349 27.0336 45.4648C27.0336 45.4648 42.5356 37.732 35.7863 20.877Z" fill="#83BF4F"/>
<path d="M45.1213 46.7452C45.1213 46.7452 24.6393 49.0817 26.4398 71.3538C26.4398 71.3538 47.359 67.6279 45.1213 46.7452Z" fill="#83BF4F"/>
<path d="M74.2736 124.562L74.0134 124.484L73.2432 124.281C72.5719 124.104 71.5676 123.865 70.3083 123.454C66.7369 122.352 63.2837 120.898 59.9996 119.114C55.1362 116.461 50.6461 113.175 46.6468 109.341C44.2743 107.072 42.0658 104.638 40.038 102.056L38.4769 99.9744C38.2167 99.631 37.9565 99.2823 37.7015 98.9336C37.4465 98.585 37.2176 98.2051 36.9782 97.8409L35.5263 95.6136L34.1942 93.2824L33.5281 92.1063L32.9349 90.9042C32.5446 90.1081 32.1439 89.3171 31.764 88.5209L30.7233 86.1168C30.5567 85.7161 30.3798 85.3206 30.2029 84.9199C30.0259 84.5192 29.9115 84.1185 29.771 83.7178L28.9175 81.3345C28.6782 80.5331 28.444 79.7422 28.215 78.9564C28.1006 78.5609 27.9809 78.1706 27.8664 77.7855C27.7519 77.4005 27.6738 76.9998 27.5802 76.6147C27.398 75.8341 27.2159 75.0536 27.0598 74.299C25.9069 68.8866 25.4107 63.355 25.5819 57.8239C25.7028 54.0884 26.1186 50.3682 26.8256 46.6982C27.1014 45.4025 27.346 44.4034 27.5021 43.7269C27.575 43.3886 27.6322 43.1336 27.6738 42.9515C27.7155 42.7694 27.7259 42.6861 27.7259 42.6861C27.7259 42.6861 27.6947 42.7694 27.6478 42.9463C27.601 43.1232 27.5386 43.3782 27.4553 43.7113C27.2888 44.393 27.0286 45.3869 26.7372 46.6774C24.8635 55.8186 24.9096 65.2494 26.8725 74.3719C27.0494 75.1368 27.2315 75.907 27.3928 76.6927C27.4917 77.083 27.5646 77.4785 27.6791 77.8688C27.7935 78.2591 27.908 78.6494 28.0277 79.0448C28.2567 79.8306 28.4908 80.606 28.7302 81.4282L29.5836 83.8219C29.7241 84.2226 29.8698 84.6285 30.0155 85.0292C30.1612 85.4299 30.3486 85.8254 30.5359 86.226L31.5767 88.6458C31.9513 89.442 32.352 90.233 32.7475 91.0343C32.9453 91.4402 33.143 91.8409 33.346 92.2416C33.5489 92.6423 33.7883 93.0274 34.012 93.4229L35.3494 95.7646L36.8065 97.997C37.051 98.3612 37.28 98.7359 37.5298 99.095L38.3103 100.136L39.8715 102.217C41.9054 104.8 44.1209 107.235 46.5011 109.502C50.5223 113.347 55.0392 116.637 59.932 119.286C63.2314 121.061 66.7029 122.496 70.2927 123.568C71.5572 123.969 72.5667 124.188 73.2432 124.354L74.0186 124.531L74.2736 124.562Z" fill="#7ADD8A"/>
<path d="M51.2932 102.675C51.2709 102.848 51.2709 103.023 51.2932 103.195C51.2932 103.518 51.366 103.981 51.4389 104.548C51.5742 105.693 51.8136 107.265 52.1466 108.982C52.4796 110.699 52.8595 112.25 53.1561 113.358C53.307 113.915 53.4371 114.363 53.536 114.67C53.5721 114.833 53.6299 114.99 53.7077 115.138C53.7021 114.962 53.6742 114.787 53.6245 114.618L53.3175 113.296C53.0573 112.177 52.7138 110.632 52.3756 108.914C52.0373 107.197 51.7823 105.636 51.6002 104.502C51.517 103.981 51.4441 103.523 51.3817 103.159C51.371 102.995 51.3413 102.832 51.2932 102.675Z" fill="#7ADD8A"/>
<path d="M46.9381 120.41C47.1129 120.417 47.2878 120.401 47.4585 120.363L48.8219 120.165C49.9667 119.993 51.5538 119.77 53.3075 119.567C55.0612 119.364 56.6587 119.213 57.814 119.114L59.1826 118.994C59.3584 118.992 59.5332 118.967 59.7029 118.921C59.53 118.902 59.3554 118.902 59.1826 118.921C58.8547 118.921 58.3864 118.921 57.8088 118.968C56.6483 119.025 55.0456 119.15 53.2867 119.353C51.5278 119.556 49.9407 119.811 48.7958 120.025C48.2286 120.129 47.7551 120.222 47.4481 120.295C47.274 120.312 47.1028 120.351 46.9381 120.41Z" fill="#7ADD8A"/>
<path d="M25.3838 98.7361C25.5751 98.801 25.7719 98.8481 25.9719 98.8766L27.5902 99.1992C28.9588 99.4646 30.8478 99.8601 32.9137 100.36C34.9796 100.859 36.8373 101.374 38.1747 101.759L39.7358 102.217C39.9279 102.287 40.1268 102.335 40.3291 102.363C40.1504 102.267 39.962 102.19 39.7671 102.134C39.3976 101.999 38.8616 101.817 38.2059 101.614C36.879 101.187 35.0264 100.646 32.9501 100.146C30.8738 99.6467 28.9849 99.2721 27.6059 99.0431C26.919 98.9286 26.3569 98.8453 25.9719 98.7985C25.7787 98.7567 25.5815 98.7357 25.3838 98.7361Z" fill="#7ADD8A"/>
<path d="M41.0367 81.9904C40.8965 82.1499 40.7743 82.3244 40.6725 82.5108C40.4487 82.8646 40.1521 83.3954 39.8034 84.0719C38.0043 87.5705 36.9066 91.3871 36.5719 95.3068C36.5094 96.0562 36.4834 96.6598 36.4834 97.0813C36.4646 97.2995 36.4646 97.5189 36.4834 97.737C36.5269 97.5229 36.5496 97.305 36.5511 97.0865C36.5511 96.6702 36.6343 96.0458 36.7124 95.3225C37.1372 91.44 38.2249 87.6593 39.9283 84.1448C40.251 83.4683 40.532 82.9271 40.7297 82.5836C40.8514 82.3965 40.9542 82.1978 41.0367 81.9904Z" fill="#7ADD8A"/>
<path d="M17.2818 71.8014C17.426 71.9282 17.583 72.0398 17.7501 72.1345L19.0667 72.9879C20.1699 73.7216 21.6686 74.7728 23.2297 76.0425C24.7908 77.3122 26.1386 78.5559 27.0805 79.4822L28.1889 80.5854C28.3164 80.7323 28.4595 80.8649 28.6156 80.9809C28.5123 80.8176 28.392 80.6659 28.2565 80.5281C28.0171 80.2419 27.6581 79.8464 27.2158 79.3677C26.0167 78.1203 24.741 76.949 23.3962 75.8604C22.0509 74.7719 20.6397 73.7674 19.1707 72.8526C18.6087 72.4987 18.13 72.2281 17.8178 72.0564C17.6484 71.953 17.4688 71.8676 17.2818 71.8014Z" fill="#7ADD8A"/>
<path d="M39.6476 55.6281C39.6476 55.6281 39.58 55.6697 39.4759 55.7581L39.0284 56.1588C38.6381 56.5127 38.0865 57.0383 37.4152 57.6939C36.0778 59.0105 34.2929 60.8891 32.4248 63.0694C30.5566 65.2498 28.9955 67.3157 27.9131 68.8508C27.3928 69.6158 26.94 70.2402 26.6538 70.6826L26.326 71.2029C26.2838 71.2582 26.2504 71.3196 26.2271 71.3851C26.2271 71.3851 26.2843 71.3382 26.3676 71.2289L26.7267 70.745L28.0432 68.9549C29.162 67.451 30.7492 65.4059 32.6017 63.2308C34.4543 61.0556 36.2444 59.1614 37.5349 57.8188L39.096 56.2577L39.5123 55.8258C39.5675 55.7674 39.6132 55.7007 39.6476 55.6281Z" fill="#7ADD8A"/>
<path d="M14.9766 44.5489C15.1065 44.7448 15.2527 44.9293 15.4137 45.1005L16.6574 46.568C17.6982 47.8117 19.098 49.5654 20.5394 51.574C21.9809 53.5827 23.1829 55.482 24.0259 56.8714C24.4266 57.5375 24.7545 58.0943 25.0095 58.521C25.1206 58.7283 25.2476 58.9266 25.3893 59.1143C25.3083 58.8931 25.2091 58.679 25.0927 58.4742C24.8846 58.0683 24.5723 57.4907 24.1664 56.7882C23.3599 55.3728 22.1734 53.463 20.7268 51.4387C19.2801 49.4144 17.8595 47.6816 16.7823 46.4587C16.2619 45.8499 15.7988 45.3659 15.4814 45.0381C15.3302 44.8582 15.1611 44.6943 14.9766 44.5489Z" fill="#7ADD8A"/>
<path d="M33.4969 27.7359C33.3701 27.9426 33.2621 28.1603 33.1743 28.3864C32.9817 28.8079 32.7111 29.4271 32.3833 30.1921C31.7328 31.7272 30.8742 33.8347 29.9948 36.2441C29.1153 38.6534 28.3712 40.813 27.8664 42.4001C27.6166 43.1911 27.4189 43.8364 27.2888 44.2839C27.209 44.5123 27.1498 44.7474 27.1119 44.9864C27.2261 44.7646 27.3201 44.5329 27.3929 44.2943C27.5594 43.8155 27.778 43.1911 28.0381 42.4365C28.5845 40.8754 29.3443 38.695 30.2289 36.3117C31.1136 33.9284 31.9254 31.8052 32.5394 30.2441C32.8308 29.5 33.0598 28.8807 33.2575 28.4072C33.3553 28.1903 33.4354 27.9658 33.4969 27.7359Z" fill="#7ADD8A"/>
<path d="M225 60.8266C225 60.8266 219.666 82.6824 195.791 77.6712C195.791 77.6712 202.712 55.5448 225 60.8266Z" fill="#83BF4F"/>
<path d="M213.463 93.9122C213.463 93.9122 202.504 110.257 184.395 98.9547C184.395 98.9339 196.743 82.8646 213.463 93.9122Z" fill="#83BF4F"/>
<path d="M195.995 118.843C195.995 118.843 180.009 132.446 164.694 115.586C164.694 115.586 182.038 102.649 195.995 118.843Z" fill="#83BF4F"/>
<path d="M179.472 66.3947C179.472 66.3947 197.207 74.9184 188.6 94.4482C187.34 93.7301 171.094 84.1447 179.472 66.3947Z" fill="#83BF4F"/>
<path d="M175.622 89.9416C175.622 89.9416 184.469 101.884 171.288 112.146C170.466 110.866 162.743 99.4541 175.622 89.9416Z" fill="#83BF4F"/>
<path d="M216.648 35.6871C216.648 35.6871 218.683 53.3799 199.554 56.2316C199.554 56.2316 198.623 37.8831 216.648 35.6871Z" fill="#83BF4F"/>
<path d="M189.23 17.7549C189.23 17.7549 204.701 24.218 197.983 42.3479C197.967 42.3635 182.465 34.6255 189.23 17.7549Z" fill="#83BF4F"/>
<path d="M179.863 43.6436C179.863 43.6436 200.345 45.9801 198.544 68.2731C198.56 68.2731 177.641 64.5264 179.863 43.6436Z" fill="#83BF4F"/>
<path d="M150.722 121.456L150.982 121.383L151.747 121.175C152.423 120.998 153.422 120.763 154.682 120.352C158.252 119.248 161.705 117.795 164.99 116.012C169.861 113.353 174.358 110.06 178.364 106.219C180.729 103.959 182.934 101.537 184.962 98.9701L186.497 96.8886L187.278 95.8478C187.528 95.4888 187.757 95.1193 187.996 94.7498C188.48 94.0161 188.959 93.272 189.448 92.5278L190.78 90.1913C191.004 89.8011 191.228 89.4108 191.446 89.0205L192.039 87.8184C192.435 87.017 192.836 86.2573 193.21 85.4351L194.251 83.0257C194.418 82.6251 194.594 82.2348 194.771 81.8341C194.948 81.4334 195.063 81.0275 195.203 80.6268L196.057 78.2487C196.296 77.4473 196.53 76.6511 196.759 75.8654C196.879 75.4751 196.993 75.0848 197.108 74.6945C197.222 74.3042 197.3 73.9139 197.394 73.5237C197.581 72.7431 197.764 71.9729 197.94 71.2132C199.095 65.7887 199.593 60.245 199.424 54.7016C199.301 50.9642 198.884 47.2423 198.175 43.5708C197.899 42.2802 197.654 41.2811 197.503 40.5994C197.425 40.2664 197.368 40.0062 197.326 39.8241C197.285 39.6419 197.28 39.5587 197.28 39.5587L197.352 39.8189L197.545 40.589C197.712 41.2655 197.972 42.2646 198.268 43.5552C199.007 47.2291 199.448 50.9567 199.585 54.7016C199.768 60.2607 199.272 65.8213 198.107 71.26L197.587 73.5757C197.493 73.966 197.415 74.3667 197.3 74.7518C197.186 75.1368 197.071 75.5375 196.952 75.9278C196.723 76.7188 196.489 77.515 196.249 78.3163C195.968 79.1073 195.687 79.8775 195.396 80.7049C195.255 81.1108 195.11 81.5115 194.964 81.9173C194.818 82.3232 194.631 82.7135 194.444 83.1142L193.403 85.534C193.023 86.3301 192.622 87.0951 192.227 87.9225L191.634 89.1298L190.962 90.3058L189.625 92.6475L188.168 94.8799C187.928 95.2494 187.694 95.6241 187.445 95.9779L186.664 97.0187L185.103 99.1002C183.067 101.683 180.85 104.118 178.468 106.385C174.449 110.235 169.932 113.527 165.037 116.174C161.738 117.948 158.267 119.382 154.676 120.451C153.412 120.852 152.402 121.076 151.726 121.237L150.956 121.419C150.878 121.435 150.8 121.447 150.722 121.456Z" fill="#7ADD8A"/>
<path d="M173.707 99.5739C173.729 99.7467 173.729 99.9216 173.707 100.094C173.681 100.412 173.634 100.875 173.566 101.447C173.426 102.587 173.192 104.158 172.853 105.881C172.515 107.603 172.146 109.149 171.844 110.257C171.693 110.814 171.563 111.256 171.464 111.563C171.426 111.728 171.368 111.887 171.292 112.037C171.301 111.869 171.331 111.703 171.381 111.543C171.464 111.178 171.563 110.736 171.683 110.216C171.943 109.102 172.291 107.551 172.625 105.834C172.958 104.117 173.223 102.556 173.4 101.421C173.488 100.901 173.561 100.448 173.618 100.084C173.626 99.9109 173.656 99.7395 173.707 99.5739Z" fill="#7ADD8A"/>
<path d="M178.068 117.308C177.893 117.315 177.718 117.299 177.547 117.261L176.189 117.063C175.039 116.892 173.457 116.668 171.698 116.46C169.939 116.252 168.347 116.106 167.192 116.007L165.828 115.887C165.652 115.887 165.477 115.863 165.308 115.814C165.481 115.794 165.656 115.794 165.828 115.814C166.151 115.814 166.619 115.814 167.202 115.861C168.357 115.919 169.96 116.038 171.719 116.246C173.478 116.455 175.065 116.704 176.21 116.918C176.777 117.022 177.251 117.115 177.558 117.188C177.732 117.208 177.903 117.249 178.068 117.308Z" fill="#7ADD8A"/>
<path d="M199.637 95.6291C199.445 95.6972 199.246 95.746 199.044 95.7748L197.426 96.0923C196.057 96.3628 194.174 96.7583 192.102 97.2579C190.031 97.7575 188.179 98.2726 186.841 98.6577L185.254 99.1156C185.062 99.182 184.863 99.2291 184.661 99.2561C184.844 99.1664 185.034 99.0899 185.228 99.0272C185.593 98.8919 186.129 98.715 186.789 98.5068C188.116 98.0801 189.974 97.5389 192.045 97.0341C194.116 96.5294 196.01 96.1651 197.389 95.9361C198.076 95.8217 198.638 95.7384 199.023 95.6864C199.226 95.648 199.431 95.6288 199.637 95.6291Z" fill="#7ADD8A"/>
<path d="M183.964 78.8835C184.103 79.0533 184.225 79.2363 184.328 79.4299C184.557 79.7837 184.848 80.3145 185.202 80.991C186.997 84.4911 188.093 88.3071 188.429 92.2259C188.491 92.9753 188.522 93.5841 188.517 94.0056C188.539 94.2219 188.539 94.4398 188.517 94.6561C188.477 94.4433 188.454 94.2274 188.449 94.0108C188.449 93.5893 188.371 92.9701 188.288 92.2415C187.861 88.3556 186.771 84.5716 185.067 81.0534C184.744 80.3822 184.469 79.841 184.266 79.4923C184.146 79.2991 184.045 79.0953 183.964 78.8835Z" fill="#7ADD8A"/>
<path d="M207.724 68.6945C207.579 68.8228 207.42 68.9345 207.251 69.0275L205.939 69.8861C204.836 70.6147 203.337 71.6658 201.776 72.9356C200.215 74.2053 198.867 75.449 197.925 76.3752L196.817 77.4836C196.69 77.6272 196.548 77.7579 196.395 77.8739C196.495 77.7098 196.614 77.5578 196.749 77.4212C196.989 77.1402 197.348 76.7395 197.79 76.2608C198.991 75.0148 200.266 73.8435 201.61 72.7534C202.952 71.6639 204.362 70.6594 205.83 69.7456C206.392 69.397 206.871 69.1264 207.183 68.9495C207.354 68.8469 207.536 68.7615 207.724 68.6945Z" fill="#7ADD8A"/>
<path d="M185.359 52.5265C185.421 52.5607 185.477 52.6046 185.525 52.6566L185.978 53.0573C186.368 53.4111 186.915 53.9315 187.586 54.5924C188.923 55.9037 190.708 57.7823 192.576 59.9627C194.445 62.143 196.006 64.2141 197.093 65.744C197.614 66.509 198.061 67.1387 198.347 67.5758L198.675 68.0962C198.717 68.1535 198.75 68.2166 198.774 68.2835C198.721 68.2353 198.674 68.1812 198.634 68.1222L198.275 67.6382L196.958 65.8533C195.839 64.3494 194.252 62.3044 192.399 60.1292C190.547 57.954 188.757 56.065 187.466 54.7225L185.905 53.1613L185.484 52.7242C185.432 52.6654 185.39 52.5986 185.359 52.5265Z" fill="#7ADD8A"/>
<path d="M210.046 41.4425C209.917 41.6396 209.771 41.8242 209.608 41.9941L208.365 43.4615C207.324 44.7104 205.924 46.4589 204.483 48.4728C203.041 50.4866 201.839 52.3808 201.001 53.765L200.013 55.4146C199.899 55.6219 199.772 55.8218 199.633 56.013C199.713 55.7908 199.814 55.5765 199.935 55.373C200.138 54.9671 200.455 54.3894 200.856 53.6817C201.662 52.2715 202.849 50.3565 204.295 48.3375C205.742 46.3184 207.163 44.5751 208.24 43.3575C208.76 42.7486 209.223 42.2595 209.541 41.9368C209.697 41.7598 209.865 41.5945 210.046 41.4425Z" fill="#7ADD8A"/>
<path d="M191.504 24.6343C191.632 24.8387 191.74 25.0548 191.826 25.2796C192.024 25.7063 192.295 26.3204 192.617 27.0905C193.268 28.6204 194.127 30.7331 195.006 33.1425C195.885 35.5518 196.63 37.7062 197.134 39.2933C197.389 40.0895 197.582 40.7296 197.712 41.1823C197.791 41.4093 197.85 41.6426 197.889 41.8796C197.782 41.6642 197.695 41.4395 197.629 41.2083L196.978 39.3454C196.432 37.7842 195.672 35.6039 194.787 33.2205C193.903 30.8372 193.075 28.6985 192.467 27.153L191.743 25.316C191.649 25.0942 191.569 24.8665 191.504 24.6343Z" fill="#7ADD8A"/>
<path d="M139.695 153.678C139.695 153.678 142.39 164.444 139.695 168.81C139.586 168.992 139.466 169.175 139.341 169.331C137.588 171.851 135.058 173.728 132.137 174.675C129.216 175.621 126.066 175.584 123.168 174.571L92.8454 164.163L95.1611 156.025L114.628 158.429L135.402 152.772L139.695 153.678Z" fill="#FFBE9D"/>
<path d="M126.175 137.052C126.175 137.052 135.886 165.344 135.402 172.13C134.918 178.916 116.148 214.468 116.148 214.468L107.926 210.69C107.926 210.69 111.079 200.714 113.182 191.988C114.222 187.58 114.66 182.225 115.471 180.061C117.938 173.592 120.821 170.226 120.821 170.226L107.588 143.025L126.175 137.052Z" fill="#FFBE9D"/>
<path d="M99.5688 118.188C99.5688 118.188 96.7015 126.077 98.6842 133.529C100.667 140.98 119.328 171.516 119.328 171.516L140.923 159.027C140.923 159.027 140.091 131.811 132.566 116.627L99.5688 118.188Z" fill="#263238"/>
<path d="M135.23 162.264C135.23 162.264 135.282 162.342 135.355 162.503C135.428 162.665 135.532 162.904 135.641 163.222C135.954 164.121 136.162 165.053 136.261 166C136.4 167.408 136.363 168.827 136.151 170.226C136.032 171.017 135.891 171.834 135.678 172.677C135.464 173.52 135.183 174.373 134.876 175.232C133.643 178.687 132.321 181.721 131.359 183.917C130.875 185.015 130.474 185.894 130.188 186.519C130.053 186.795 129.943 187.039 129.855 187.211C129.819 187.294 129.774 187.373 129.72 187.445C129.736 187.357 129.764 187.271 129.803 187.19L130.089 186.477L131.182 183.875C132.098 181.658 133.393 178.614 134.621 175.175C134.923 174.316 135.199 173.468 135.418 172.646C135.636 171.823 135.782 171.001 135.907 170.221C136.128 168.845 136.186 167.447 136.079 166.058C136.003 165.119 135.829 164.191 135.558 163.289C135.35 162.613 135.204 162.274 135.23 162.264Z" fill="#EB996E"/>
<path d="M113.941 188.272C113.936 188.029 113.951 187.785 113.988 187.544C114.03 187.07 114.113 186.394 114.227 185.561C114.509 183.376 115.006 181.223 115.711 179.135C116.478 177.066 117.475 175.091 118.682 173.244C119.135 172.536 119.514 171.964 119.785 171.579C119.914 171.371 120.062 171.176 120.227 170.996C120.129 171.22 120.011 171.434 119.874 171.636C119.603 172.084 119.259 172.677 118.833 173.343C117.683 175.204 116.719 177.173 115.955 179.223C115.256 181.297 114.734 183.426 114.394 185.587C114.259 186.378 114.149 187.039 114.066 187.554C114.051 187.798 114.009 188.038 113.941 188.272Z" fill="#EB996E"/>
<path d="M135.11 156.342C135.067 156.263 135.033 156.179 135.011 156.092L134.777 155.369C134.574 154.697 134.293 153.808 133.955 152.699C133.263 150.441 132.279 147.334 131.114 143.931C129.948 140.528 128.819 137.468 127.991 135.256L127.003 132.654C126.899 132.368 126.815 132.134 126.743 131.941C126.706 131.86 126.681 131.774 126.67 131.686C126.723 131.758 126.765 131.837 126.795 131.92L127.102 132.618C127.367 133.221 127.731 134.106 128.168 135.22C129.048 137.41 130.203 140.465 131.374 143.874C132.545 147.282 133.497 150.404 134.148 152.673C134.47 153.808 134.725 154.755 134.886 155.374C134.959 155.665 135.022 155.894 135.069 156.108C135.094 156.183 135.108 156.262 135.11 156.342Z" fill="#455A64"/>
<path d="M122.403 135.23C122.372 135.267 121.727 134.736 120.577 134.044C119.905 133.642 119.21 133.28 118.495 132.961C117.614 132.581 116.708 132.261 115.784 132.004C114.854 131.762 113.908 131.588 112.953 131.483C112.174 131.397 111.39 131.361 110.606 131.374C109.264 131.4 108.441 131.535 108.431 131.483C108.616 131.417 108.808 131.374 109.003 131.353C109.532 131.261 110.065 131.204 110.601 131.182C111.394 131.141 112.189 131.159 112.979 131.234C113.949 131.33 114.909 131.504 115.851 131.754C116.791 132.013 117.71 132.344 118.599 132.743C119.319 133.076 120.015 133.461 120.681 133.893C121.133 134.18 121.566 134.496 121.976 134.84C122.134 134.952 122.277 135.083 122.403 135.23Z" fill="#455A64"/>
<path d="M130.349 104.658C130.505 101.088 134.72 96.6028 133.632 86.4763C132.487 75.8554 130.874 66.4938 130.874 66.4938L122.866 68.4452L121.492 66.4938L108.269 69.6161L106.188 71.5779L97.0134 75.3298C96.4708 75.5529 95.9787 75.8831 95.5665 76.3006C95.1543 76.7181 94.8305 77.2145 94.6144 77.7599L88.2242 94.0113L74.3354 84.6706L69.0744 91.8049C69.0744 91.8049 86.559 107.848 91.1279 107.385C95.2233 106.969 98.6526 100.755 100.354 97.0347L102.987 108.009C102.987 108.009 98.8243 115.347 97.9865 127.784L125.452 128.825C126.299 128.858 127.143 128.693 127.916 128.345C128.689 127.996 129.37 127.473 129.906 126.816L135.11 120.462C135.11 120.462 130.193 108.207 130.349 104.658Z" fill="#83BF4F"/>
<path d="M127.133 68.4556L130.676 66.832L144.596 54.702L149.602 33.5435L158.449 37.2434C158.449 37.2434 157.601 53.1409 156.492 58.5789C155.384 64.0168 133.028 81.7616 133.028 81.7616L127.133 68.4556Z" fill="#83BF4F"/>
<path d="M131.988 71.6974C132.106 72.2942 132.191 72.897 132.243 73.5031C132.394 74.6948 132.586 76.2039 132.795 77.8691C133.003 79.5343 133.18 81.1266 133.273 82.2455C133.325 82.8075 133.357 83.2862 133.372 83.5776C133.397 83.7415 133.397 83.9081 133.372 84.072C133.242 83.4766 133.149 82.8735 133.096 82.2663C132.945 81.0746 132.753 79.5707 132.54 77.9055C132.326 76.2403 132.155 74.648 132.066 73.5239C132.019 72.9619 131.993 72.5092 131.983 72.1918C131.958 72.0278 131.96 71.8609 131.988 71.6974Z" fill="#263238"/>
<path d="M122.486 100.115C122.392 100.034 122.305 99.9454 122.226 99.8497L121.523 99.0483C120.899 98.325 120.025 97.3155 118.963 96.077L110.595 86.1898L105.995 80.7207L105.938 80.653L105.985 80.5802L107.01 78.7953L107.135 78.967C106.531 79.0919 105.964 79.1231 105.444 79.2324L105.293 79.2688V79.1127C105.574 76.9063 105.813 75.0798 105.969 73.7736C106.052 73.1596 106.12 72.6704 106.172 72.3062C106.186 72.1301 106.218 71.9558 106.266 71.7858C106.269 71.9598 106.259 72.1338 106.235 72.3062C106.198 72.6756 106.151 73.1648 106.089 73.784C105.948 75.0902 105.751 76.9063 105.511 79.1335L105.376 79.019C105.896 78.8941 106.495 78.8577 107.067 78.7328L107.322 78.6756L107.197 78.9046C106.88 79.477 106.547 80.0754 106.198 80.6946V80.5541C107.608 82.2298 109.175 84.0771 110.814 86.0181L119.14 95.9469L121.633 98.9755L122.299 99.8081C122.372 99.9035 122.435 100.006 122.486 100.115Z" fill="#263238"/>
<path d="M124.541 98.6112C124.538 98.4959 124.548 98.3806 124.573 98.2678L124.713 97.2843C124.843 96.4308 125.051 95.2027 125.322 93.678C125.593 92.1533 125.91 90.3528 126.207 88.339C126.543 86.1614 126.735 83.9642 126.784 81.7614C126.845 79.3789 126.671 76.9961 126.264 74.6479L126.358 74.7415L124.541 74.3096L124.266 74.242L124.51 74.0963L125.837 73.3157L125.806 73.4666C125.228 72.6444 124.802 71.8586 124.401 71.1718C124 70.4849 123.672 69.902 123.391 69.4025C123.11 68.9029 122.871 68.5439 122.731 68.2889C122.642 68.1656 122.563 68.035 122.496 67.8986C122.528 67.9241 122.556 67.9538 122.58 67.987C122.652 68.0736 122.72 68.164 122.783 68.2576C122.954 68.497 123.194 68.8665 123.49 69.34L124.531 71.0885C124.942 71.7598 125.39 72.5456 125.962 73.3417L126.03 73.4354L125.931 73.4978L124.614 74.294L124.583 74.0859L126.399 74.5022H126.477V74.5802C126.917 76.9478 127.114 79.3539 127.065 81.7614C127.014 83.9793 126.808 86.191 126.451 88.3806C126.144 90.3997 125.796 92.2054 125.509 93.7197C125.223 95.234 124.989 96.4256 124.817 97.3051C124.739 97.7058 124.677 98.0284 124.625 98.2782C124.608 98.3917 124.58 98.5033 124.541 98.6112Z" fill="#263238"/>
<path d="M126.264 104.211C126.143 104.318 126.006 104.406 125.858 104.471C125.588 104.622 125.192 104.825 124.698 105.064C122.112 106.302 119.401 107.26 116.611 107.921C116.091 108.046 115.643 108.14 115.341 108.192C115.186 108.234 115.024 108.252 114.863 108.244C115.42 108.038 115.988 107.865 116.564 107.723C117.605 107.427 119.067 106.989 120.639 106.433C122.21 105.876 123.615 105.303 124.62 104.872C125.153 104.617 125.703 104.396 126.264 104.211Z" fill="#263238"/>
<path d="M126.706 108.467C126.278 108.517 125.846 108.529 125.416 108.504C124.619 108.504 123.521 108.504 122.293 108.566C121.065 108.628 119.988 108.707 119.197 108.774C118.78 108.83 118.358 108.846 117.938 108.821C118.35 108.689 118.776 108.602 119.207 108.561C119.998 108.446 121.102 108.327 122.33 108.275C123.558 108.223 124.656 108.243 125.452 108.275C125.876 108.289 126.297 108.354 126.706 108.467Z" fill="#263238"/>
<path d="M124.703 104.32C124.546 103.378 124.476 102.423 124.495 101.468C124.426 100.516 124.447 99.5598 124.557 98.6115C124.717 99.5533 124.787 100.508 124.765 101.463C124.837 102.415 124.816 103.372 124.703 104.32Z" fill="#263238"/>
<path d="M124.281 108.212C124.077 107.746 123.956 107.247 123.922 106.739C123.8 106.243 123.769 105.728 123.829 105.22C124.155 106.183 124.308 107.196 124.281 108.212Z" fill="#263238"/>
<path d="M127.534 128.517C127.482 128.262 127.454 128.003 127.451 127.742C127.414 127.222 127.362 126.514 127.279 125.624C127.128 123.834 126.858 121.367 126.457 118.661C126.056 115.955 125.583 113.505 125.224 111.766C125.041 110.887 124.875 110.179 124.766 109.685C124.69 109.434 124.641 109.176 124.62 108.915C124.723 109.156 124.807 109.405 124.87 109.659C125.01 110.138 125.203 110.84 125.39 111.714C125.817 113.463 126.316 115.903 126.722 118.615C127.128 121.326 127.367 123.818 127.472 125.603C127.529 126.504 127.55 127.227 127.555 127.732C127.574 127.994 127.567 128.257 127.534 128.517Z" fill="#263238"/>
<g opacity="0.3">
<path d="M105.314 79.1963L105.928 79.4513L105.252 81.0124C105.252 81.0124 115.659 93.7408 118.506 96.2022C121.94 99.1892 122.039 99.5743 122.039 99.5743L106.09 80.6274L107.094 78.8425L105.314 79.1963Z" fill="black"/>
</g>
<g opacity="0.3">
<path d="M112.792 108.873L128.112 104.096C128.202 104.542 128.168 105.004 128.012 105.432C127.857 105.86 127.587 106.236 127.232 106.521C126.511 107.078 125.676 107.471 124.786 107.671C121.097 108.712 116.648 109.357 112.849 108.873" fill="black"/>
</g>
<path d="M92.0079 97.3729C91.143 95.6335 89.6233 94.3085 87.7824 93.6886C88.0741 93.6798 88.3639 93.7367 88.6306 93.8551C89.9689 94.3255 91.0766 95.2899 91.7269 96.5507C91.8782 96.8015 91.974 97.0819 92.0079 97.3729Z" fill="#263238"/>
<path d="M97.4553 83.1511C97.4949 83.2281 97.5229 83.3105 97.5386 83.3956C97.5906 83.5934 97.653 83.8276 97.7259 84.1138C97.882 84.785 98.0954 85.6749 98.3555 86.7729C98.8759 89.0157 99.5836 92.1224 100.343 95.5516C101.103 98.9809 101.759 102.062 102.258 104.351C102.487 105.449 102.675 106.355 102.81 107.026C102.867 107.317 102.914 107.546 102.95 107.754C102.971 107.838 102.983 107.923 102.987 108.009C102.867 107.697 102.775 107.375 102.711 107.047C102.55 106.381 102.331 105.486 102.071 104.393C101.551 102.15 100.838 99.0486 100.078 95.6141C99.3182 92.1796 98.6417 89.0469 98.163 86.8145C97.9392 85.7165 97.7519 84.8111 97.6426 84.1398C97.5906 83.8484 97.5438 83.6194 97.5073 83.406C97.4794 83.3236 97.4619 83.2379 97.4553 83.1511Z" fill="#263238"/>
<path d="M71.333 91.1285C71.2813 91.3422 71.2921 91.5662 71.3643 91.7738C71.4052 91.8773 71.4683 91.9706 71.5492 92.0471C71.6302 92.1235 71.7269 92.1812 71.8326 92.2161C71.9603 92.2456 72.0939 92.2354 72.2156 92.1871C72.3374 92.1388 72.4416 92.0545 72.5143 91.9455C72.5975 91.8451 72.6489 91.7222 72.6619 91.5924C72.6749 91.4626 72.6488 91.3319 72.5872 91.217C72.5227 91.1262 72.4397 91.0501 72.3438 90.9936C72.2478 90.9371 72.141 90.9015 72.0304 90.8892C71.8103 90.8772 71.5915 90.9297 71.4007 91.0401C71.4007 91.0401 71.4007 90.9568 71.5152 90.8683C71.6642 90.7544 71.8481 90.6955 72.0356 90.7018C72.1815 90.702 72.3253 90.7365 72.4555 90.8025C72.5856 90.8685 72.6985 90.9641 72.7849 91.0817C72.8761 91.2411 72.9185 91.4238 72.9067 91.6071C72.8949 91.7904 72.8295 91.9662 72.7185 92.1126C72.6076 92.259 72.4561 92.3695 72.2829 92.4305C72.1096 92.4915 71.9223 92.5002 71.7441 92.4555C71.6067 92.4062 71.483 92.3247 71.3834 92.2179C71.2839 92.1111 71.2113 91.982 71.1717 91.8415C71.1038 91.6621 71.1038 91.464 71.1717 91.2847C71.255 91.165 71.3226 91.1285 71.333 91.1285Z" fill="#263238"/>
<path d="M150.769 36.4886C150.769 36.4886 150.81 36.4106 150.961 36.3689C151.066 36.3549 151.172 36.3619 151.274 36.3896C151.376 36.4173 151.471 36.4651 151.555 36.5303C151.812 36.7165 151.986 36.997 152.039 37.3108C152.053 37.5148 151.999 37.7179 151.885 37.8877C151.771 38.0574 151.603 38.1841 151.409 38.2475C151.225 38.3243 151.022 38.3465 150.826 38.3115C150.629 38.2764 150.447 38.1856 150.3 38.0498C150.192 37.9288 150.118 37.781 150.086 37.6218C150.054 37.4626 150.065 37.2978 150.118 37.1443C150.285 36.6239 150.576 36.4678 150.592 36.4886C150.476 36.7139 150.38 36.949 150.306 37.1911C150.273 37.3099 150.272 37.4352 150.302 37.5546C150.332 37.6741 150.392 37.7837 150.477 37.8728C150.592 37.9682 150.731 38.0303 150.879 38.0523C151.027 38.0744 151.177 38.0555 151.315 37.9977C151.455 37.9538 151.577 37.8656 151.662 37.7464C151.748 37.6272 151.792 37.4834 151.789 37.3368C151.753 37.0829 151.628 36.8501 151.435 36.6812C151.31 36.5596 151.146 36.4875 150.972 36.4782C150.847 36.4886 150.779 36.5355 150.769 36.4886Z" fill="#263238"/>
<path d="M77.2912 72.2076C80.7048 67.852 85.3154 64.4019 90.8834 63.5173C93.7559 63.0541 96.5399 63.5173 99.2667 64.4591C102.16 65.4427 104.934 66.6083 107.988 67.009C111.496 67.4721 115.018 67.1495 118.515 66.7488C119.192 66.6707 121.695 66.0359 121.695 65.297C121.695 64.6725 119.197 64.1417 118.515 64.2198C115.341 64.584 112.13 64.9015 108.935 64.5944C105.813 64.2926 102.977 63.0593 100.047 62.0602C97.189 61.006 94.1254 60.6283 91.0968 60.957C88.0665 61.3442 85.1556 62.3808 82.5626 63.996C79.8501 65.7075 77.4598 67.8829 75.5011 70.4227C75.2758 70.6652 75.1506 70.984 75.1506 71.3151C75.1506 71.6462 75.2758 71.965 75.5011 72.2076C75.7396 72.4427 76.0611 72.5746 76.3961 72.5746C76.7311 72.5746 77.0526 72.4427 77.2912 72.2076Z" fill="#455A64"/>
<g opacity="0.3">
<path d="M77.3015 72.2437C80.7152 67.8881 85.3257 64.438 90.8938 63.5534C93.7248 63.1687 96.607 63.4923 99.2822 64.4953C102.176 65.4736 104.949 66.6444 107.999 67.0451C111.506 67.5083 115.034 67.1856 118.526 66.7849C119.207 66.7069 121.695 66.2646 121.695 65.5308C121.695 64.9064 119.207 64.1779 118.526 64.2559C115.351 64.6202 112.141 64.9376 108.946 64.6254C105.823 64.3288 102.993 63.0955 100.063 62.0964C97.2025 61.0432 94.1379 60.6639 91.1071 60.9879C88.0768 61.3779 85.166 62.4162 82.5729 64.0321C79.862 65.7437 77.4734 67.9191 75.5166 70.4588C75.289 70.7002 75.1623 71.0195 75.1623 71.3512C75.1623 71.683 75.289 72.0023 75.5166 72.2437C75.7543 72.4785 76.075 72.6102 76.4091 72.6102C76.7432 72.6102 77.0639 72.4785 77.3015 72.2437Z" fill="black"/>
</g>
<path d="M126.784 41.4896C127.971 40.8183 128.205 39.0126 127.398 37.9042C126.962 37.3752 126.378 36.9892 125.72 36.7962C125.062 36.6032 124.362 36.6122 123.709 36.8218C123.849 36.4268 123.858 35.9972 123.734 35.5969C123.61 35.1965 123.36 34.8468 123.022 34.5998C122.331 34.1219 121.504 33.8826 120.665 33.9181C119.546 33.9181 118.266 34.2667 117.808 35.2867C117.631 34.6206 116.876 34.2823 116.189 34.2459C115.267 34.2144 114.366 34.5239 113.657 35.1153C112.949 35.7066 112.483 36.5383 112.349 37.4514C111.734 37.1004 111.024 36.9494 110.32 37.0195C109.969 37.0633 109.643 37.2218 109.391 37.4702C109.14 37.7187 108.978 38.0432 108.93 38.3933C108.695 38.1379 108.399 37.9455 108.07 37.8337C107.741 37.7219 107.389 37.6942 107.046 37.7533C106.541 37.7677 106.053 37.9366 105.647 38.2372C105.447 38.3911 105.3 38.6021 105.224 38.8419C105.148 39.0818 105.146 39.3391 105.22 39.5798C104.741 39.4981 104.248 39.5972 103.838 39.8579C103.428 40.1186 103.129 40.5222 102.999 40.9907C102.87 41.4591 102.919 41.959 103.137 42.3934C103.355 42.8279 103.726 43.1659 104.179 43.3421C103.85 43.6128 103.596 43.9627 103.44 44.3589C103.283 44.7551 103.231 45.1845 103.286 45.6067C103.342 46.0289 103.504 46.43 103.758 46.7722C104.012 47.1143 104.348 47.3862 104.736 47.5624C104.641 47.604 104.557 47.6667 104.49 47.7456C104.423 47.8246 104.375 47.9177 104.35 48.018C104.324 48.1184 104.322 48.2232 104.343 48.3245C104.363 48.4259 104.407 48.5212 104.471 48.6031C104.72 48.9466 104.554 48.9674 104.991 48.957C105.074 50.414 105.189 51.5328 105.272 52.9899C105.329 53.9318 105.308 55.1651 105.652 56.0393C105.909 56.5288 106.261 56.9625 106.687 57.3153C107.113 57.6681 107.605 57.933 108.134 58.0948L125.489 51.5797C126.064 50.9682 126.455 50.2062 126.615 49.3819C126.775 48.5577 126.699 47.7048 126.394 46.9223C126.338 46.8526 126.3 46.7712 126.28 46.6842C126.261 46.5972 126.261 46.507 126.282 46.4203C126.302 46.3336 126.342 46.2527 126.399 46.1837C126.455 46.1147 126.526 46.0594 126.607 46.022C126.959 45.7514 127.252 45.4122 127.469 45.0248C127.685 44.6375 127.82 44.2101 127.867 43.7688C127.899 43.3276 127.817 42.8855 127.627 42.4859C127.437 42.0863 127.147 41.7429 126.784 41.4896Z" fill="#263238"/>
<path d="M125.223 47.4168C124.832 43.9043 120.877 40.5634 117.417 41.0994L106.156 43.7742L106.286 45.6683L109.159 71.1668L121.33 78.4209L120.617 65.885C120.617 65.885 125.061 64.9275 125.707 59.0056C126.029 56.0863 125.649 51.2988 125.223 47.4168Z" fill="#FFBE9D"/>
<path d="M123.053 52.5215C123.063 52.7166 122.997 52.9081 122.869 53.0556C122.741 53.2031 122.561 53.2952 122.366 53.3124C122.177 53.3314 121.988 53.2746 121.841 53.1547C121.694 53.0347 121.6 52.8613 121.581 52.6724C121.568 52.4761 121.632 52.2825 121.761 52.1336C121.889 51.9846 122.071 51.8922 122.267 51.8762C122.457 51.8588 122.646 51.9167 122.793 52.0375C122.94 52.1583 123.033 52.3322 123.053 52.5215Z" fill="#263238"/>
<path d="M124.302 49.9351C124.213 50.0392 123.62 49.6437 122.813 49.6853C122.007 49.727 121.434 50.1589 121.346 50.0652C121.258 49.9715 121.382 49.8414 121.632 49.6385C121.97 49.3819 122.379 49.2348 122.803 49.217C123.225 49.1916 123.643 49.3049 123.995 49.5396C124.25 49.7165 124.343 49.8935 124.302 49.9351Z" fill="#263238"/>
<path d="M115.987 52.7455C116 52.9404 115.935 53.1326 115.808 53.2806C115.68 53.4286 115.5 53.5205 115.305 53.5365C115.21 53.5488 115.113 53.5419 115.021 53.5162C114.928 53.4905 114.842 53.4465 114.767 53.3868C114.691 53.3271 114.629 53.253 114.583 53.1687C114.537 53.0845 114.508 52.9919 114.498 52.8964C114.485 52.7009 114.55 52.5081 114.677 52.3593C114.804 52.2105 114.985 52.1175 115.18 52.1002C115.276 52.0879 115.373 52.095 115.466 52.121C115.558 52.1471 115.645 52.1915 115.72 52.2517C115.796 52.3119 115.858 52.3867 115.904 52.4715C115.95 52.5563 115.978 52.6495 115.987 52.7455Z" fill="#263238"/>
<path d="M116.403 50.6381C116.315 50.7422 115.727 50.3467 114.92 50.3883C114.114 50.4299 113.541 50.8619 113.448 50.763C113.354 50.6641 113.489 50.5444 113.739 50.3415C114.073 50.0827 114.479 49.9338 114.901 49.9152C115.323 49.8965 115.741 50.0091 116.096 50.2374C116.377 50.4195 116.445 50.5913 116.403 50.6381Z" fill="#263238"/>
<path d="M119.592 56.3411C120.011 56.1842 120.448 56.0828 120.893 56.0393C121.096 56.0081 121.289 55.956 121.32 55.8155C121.326 55.6006 121.268 55.3887 121.154 55.2067L120.467 53.6455C119.509 51.4391 118.807 49.623 118.906 49.5866C119.004 49.5502 119.842 51.3039 120.8 53.5102C121.029 54.0306 121.247 54.551 121.461 55.0714C121.6 55.3155 121.652 55.6003 121.606 55.878C121.58 55.9533 121.537 56.0215 121.48 56.0775C121.423 56.1334 121.354 56.1755 121.278 56.2006C121.167 56.2363 121.052 56.2573 120.935 56.263C120.492 56.3426 120.041 56.3689 119.592 56.3411Z" fill="#263238"/>
<path d="M120.618 65.9055C117.864 66.0787 115.116 65.4804 112.682 64.1779C112.682 64.1779 115.076 68.5438 120.904 67.7164L120.618 65.9055Z" fill="#EB996E"/>
<path d="M119.348 58.3082C119.185 58.1221 118.977 57.9806 118.744 57.8968C118.511 57.8131 118.261 57.7899 118.016 57.8294C117.84 57.8512 117.671 57.9086 117.518 57.9981C117.365 58.0876 117.232 58.2072 117.126 58.3498C117.028 58.4919 116.975 58.6607 116.975 58.8337C116.975 59.0067 117.028 59.1756 117.126 59.3177C117.262 59.458 117.437 59.5539 117.629 59.593C117.82 59.632 118.019 59.6122 118.198 59.5362C118.575 59.3839 118.916 59.1573 119.203 58.8702C119.29 58.801 119.364 58.7163 119.421 58.6204C119.449 58.5751 119.464 58.5228 119.464 58.4695C119.464 58.4162 119.449 58.3639 119.421 58.3186" fill="#EB996E"/>
<path d="M117.246 57.0123C117.376 57.0123 117.423 57.8762 118.204 58.4694C118.984 59.0626 119.91 58.9169 119.921 59.0366C119.931 59.1563 119.723 59.2187 119.328 59.25C118.815 59.281 118.308 59.1299 117.897 58.8232C117.5 58.5262 117.232 58.0887 117.147 57.6004C117.1 57.2309 117.184 57.0123 117.246 57.0123Z" fill="#263238"/>
<path d="M116.507 47.7289C116.434 47.9526 115.627 47.8902 114.686 48.0463C113.744 48.2024 112.989 48.5042 112.854 48.3117C112.791 48.218 112.916 48.0047 113.213 47.7913C113.613 47.5121 114.072 47.3272 114.554 47.2506C115.036 47.174 115.53 47.2076 115.997 47.349C116.377 47.4583 116.533 47.6248 116.507 47.7289Z" fill="#263238"/>
<path d="M123.891 47.604C123.755 47.7965 123.188 47.604 122.522 47.656C121.856 47.7081 121.294 47.8382 121.154 47.656C121.091 47.5624 121.154 47.375 121.409 47.1877C121.731 46.9618 122.113 46.8384 122.507 46.8338C122.9 46.8229 123.287 46.9338 123.615 47.1513C123.86 47.3282 123.948 47.5103 123.891 47.604Z" fill="#263238"/>
<path d="M122.476 40.7403L122.111 40.5894C122.678 39.3197 121.721 37.6909 120.368 37.3735C119.682 37.2554 118.975 37.3624 118.354 37.6784C117.734 37.9944 117.232 38.5026 116.923 39.1271C116.611 38.5823 116.124 38.1588 115.542 37.9255C114.959 37.6921 114.314 37.6627 113.712 37.8418C112.729 38.1696 112.026 39.0127 111.35 39.8036C111.199 39.9806 111.006 40.1731 110.772 40.1471C110.606 40.1029 110.457 40.0084 110.346 39.8765C109.76 39.3932 109.042 39.0975 108.285 39.0278C107.529 38.9582 106.769 39.118 106.104 39.4862C105.45 39.8704 104.879 40.3819 104.426 40.9906C103.973 41.5994 103.647 42.2928 103.466 43.03C103.277 43.6258 103.245 44.2602 103.373 44.8721C103.439 45.1754 103.584 45.4559 103.793 45.6852C104.002 45.9146 104.268 46.0846 104.564 46.1782C104.3 46.5493 104.125 46.9761 104.052 47.4257C103.979 47.8753 104.01 48.3357 104.143 48.7713C104.277 49.2068 104.508 49.6059 104.82 49.9377C105.132 50.2695 105.517 50.5251 105.943 50.6847C106.006 50.8831 106.091 51.0735 106.198 51.2519C106.099 52.3209 106.063 53.3947 106.089 54.4678C106.073 54.9315 106.17 55.392 106.37 55.8104C106.477 56.015 106.645 56.1806 106.852 56.2834C107.059 56.3863 107.292 56.4211 107.52 56.3828C108.004 56.2475 108.68 55.9977 108.826 55.5138C109.081 54.65 108.8 53.4583 108.868 52.5581C109.369 52.4835 109.838 52.2663 110.219 51.9326C110.601 51.5989 110.878 51.1625 111.019 50.6756C111.159 50.1887 111.156 49.6717 111.011 49.1862C110.866 48.7007 110.584 48.2671 110.2 47.9371C110.62 48.1123 111.076 48.1852 111.529 48.1497C111.983 48.1143 112.422 47.9715 112.81 47.7331C113.198 47.4948 113.523 47.1677 113.76 46.7788C113.996 46.39 114.137 45.9505 114.17 45.4965C114.585 45.8843 115.079 46.178 115.618 46.3576C116.157 46.5372 116.728 46.5985 117.293 46.5373C117.836 46.5077 118.346 46.2668 118.713 45.866C118.888 45.6589 118.98 45.3949 118.972 45.1244C118.964 44.8538 118.857 44.5954 118.672 44.3986C119.19 44.6301 119.764 44.7041 120.324 44.6116C120.884 44.5191 121.404 44.264 121.82 43.8782C122.222 43.475 122.498 42.9638 122.614 42.4067C122.73 41.8495 122.682 41.2706 122.476 40.7403Z" fill="#263238"/>
<path d="M107.796 53.4789C107.707 53.4425 104.304 52.5527 104.523 56.0028C104.741 59.4529 108.139 58.5318 108.139 58.4329C108.139 58.3341 107.796 53.4789 107.796 53.4789Z" fill="#FFBE9D"/>
<path d="M107.01 57.1892C107.01 57.1892 106.953 57.236 106.854 57.288C106.716 57.3583 106.555 57.3714 106.407 57.3245C106.176 57.1949 105.983 57.007 105.848 56.7796C105.713 56.5522 105.64 56.2933 105.637 56.0287C105.612 55.7342 105.651 55.4377 105.751 55.1597C105.777 55.0504 105.829 54.9489 105.902 54.8638C105.976 54.7787 106.068 54.7124 106.173 54.6705C106.241 54.6474 106.315 54.6494 106.382 54.6761C106.448 54.7028 106.503 54.7525 106.537 54.8162C106.589 54.9099 106.573 54.9776 106.589 54.9828C106.605 54.988 106.662 54.9203 106.625 54.7798C106.6 54.6954 106.547 54.622 106.474 54.5717C106.426 54.539 106.372 54.5162 106.315 54.5046C106.257 54.493 106.199 54.4928 106.141 54.504C106.002 54.5402 105.873 54.6119 105.769 54.7122C105.666 54.8125 105.589 54.938 105.548 55.0764C105.419 55.3835 105.369 55.7181 105.402 56.0495C105.403 56.358 105.494 56.6596 105.665 56.9161C105.837 57.1727 106.08 57.3727 106.365 57.491C106.456 57.5076 106.549 57.5051 106.639 57.4836C106.728 57.4621 106.812 57.422 106.886 57.3661C107.01 57.2724 107.01 57.1944 107.01 57.1892Z" fill="#EB996E"/>
<path d="M113.998 44.9138C114.029 44.9171 114.061 44.9171 114.092 44.9138L114.368 44.945C114.715 44.9713 115.065 44.9538 115.409 44.893C115.658 44.8447 115.901 44.766 116.132 44.6588C116.405 44.5357 116.651 44.3587 116.855 44.1384C117.085 43.8763 117.248 43.5619 117.329 43.2226C117.419 42.8393 117.368 42.4361 117.183 42.0881L117.089 42.1766C117.809 42.6364 118.658 42.8501 119.509 42.7854C119.974 42.7568 120.429 42.6421 120.852 42.4472C121.073 42.3439 121.28 42.2109 121.466 42.0517C121.655 41.8786 121.793 41.6574 121.866 41.4116C121.94 41.1276 121.949 40.8306 121.892 40.5426C121.847 40.2652 121.779 39.992 121.689 39.7256C121.608 39.4629 121.49 39.2126 121.341 38.9815C121.267 38.8625 121.167 38.7615 121.049 38.6859C120.931 38.6103 120.798 38.5619 120.659 38.5444V38.6849C121.17 38.8151 121.709 38.7674 122.189 38.5496C122.63 38.3618 123.009 38.0533 123.282 37.6597C123.519 37.3144 123.651 36.9077 123.662 36.4889C123.664 36.0514 123.553 35.6208 123.337 35.2401C123.122 34.8594 122.81 34.5417 122.434 34.3189C122.273 34.2237 122.097 34.1568 121.913 34.1212C122.077 34.1928 122.237 34.2727 122.392 34.3605C122.813 34.627 123.144 35.0154 123.339 35.4742C123.478 35.7941 123.545 36.1403 123.537 36.4889C123.528 36.8928 123.397 37.2846 123.162 37.6129C122.9 37.9828 122.54 38.2714 122.121 38.4455C121.668 38.647 121.16 38.6892 120.68 38.5652L120.654 38.7109C120.772 38.7271 120.884 38.7697 120.984 38.8354C121.083 38.9012 121.166 38.9885 121.226 39.0908C121.369 39.3072 121.478 39.5441 121.549 39.7933C121.757 40.2986 121.818 40.8523 121.726 41.3908C121.649 41.6056 121.525 41.8007 121.364 41.9625C121.203 42.1244 121.009 42.249 120.794 42.3275C120.388 42.5152 119.951 42.628 119.504 42.6606C118.684 42.7253 117.865 42.5246 117.167 42.0881L116.944 41.9424L117.074 42.1766C117.247 42.4943 117.297 42.865 117.214 43.2174C117.141 43.5388 116.993 43.8385 116.782 44.0916C116.591 44.3096 116.357 44.4867 116.095 44.612C115.874 44.7209 115.64 44.8013 115.398 44.8513C115.056 44.9222 114.707 44.9519 114.357 44.9398C114.238 44.9237 114.118 44.915 113.998 44.9138Z" fill="white"/>
<path d="M123.142 43.1603C123.142 43.1603 123.21 43.2071 123.345 43.2435C123.593 43.3068 123.853 43.3101 124.103 43.2531C124.352 43.1961 124.585 43.0805 124.781 42.9157C124.855 42.8502 124.916 42.7703 124.959 42.6809C125.002 42.5915 125.026 42.4944 125.031 42.3953C125.035 42.2894 125.01 42.1844 124.958 42.0923C124.905 42.0002 124.828 41.9249 124.734 41.8749L124.682 42.0206H124.734C125.07 42.0978 125.42 42.1 125.757 42.0272C126.094 41.9544 126.411 41.8082 126.686 41.5991C126.851 41.474 126.996 41.3249 127.118 41.1568C127.166 41.0984 127.203 41.0313 127.227 40.9591C127.042 41.1596 126.84 41.3442 126.623 41.5107C126.356 41.6958 126.054 41.8237 125.735 41.8864C125.416 41.9491 125.088 41.9452 124.771 41.8749H124.724L124 41.7136L124.672 42.0154C124.741 42.0545 124.798 42.1124 124.836 42.1824C124.873 42.2524 124.89 42.3316 124.885 42.4109C124.873 42.5679 124.802 42.7145 124.687 42.822C124.476 43.013 124.214 43.1393 123.933 43.1863C123.669 43.2163 123.403 43.2075 123.142 43.1603Z" fill="white"/>
<path d="M151.112 33.9756L151.492 31.8213C151.492 31.8213 150.232 27.1379 150.362 26.4614C150.492 25.7849 150.633 22.5742 150.633 22.5742L153.87 18.9315C154.098 18.9229 154.323 18.9821 154.518 19.1016C154.712 19.2211 154.867 19.3955 154.962 19.6028C154.962 19.6028 156.44 19.4831 156.773 20.4822C156.9 20.414 157.043 20.3794 157.187 20.3815C157.331 20.3836 157.472 20.4224 157.597 20.4943C157.722 20.5661 157.827 20.6687 157.901 20.7922C157.976 20.9158 158.017 21.0563 158.022 21.2004C158.089 21.508 158.118 21.8224 158.111 22.137C158.324 22.1839 159.552 22.4753 159.563 23.0841C159.525 24.0206 159.35 24.9464 159.042 25.8317C158.978 25.9891 158.876 26.1283 158.745 26.2372C158.615 26.346 158.459 26.4212 158.293 26.4562L157.929 28.1162C157.929 28.1162 157.611 30.8429 157.002 32.1127L156.539 32.8672L156.399 36.2653L151.112 33.9756Z" fill="#FFBE9D"/>
<path d="M155.926 21.8817C155.749 21.0119 155.395 20.188 154.885 19.462L153.646 20.2529C153.791 20.6741 153.964 21.0845 154.167 21.481C154.253 21.7151 154.391 21.9264 154.572 22.0987C154.752 22.271 154.97 22.3997 155.207 22.4749C155.483 22.5426 155.837 22.4749 155.926 22.2043C155.952 22.0984 155.952 21.9877 155.926 21.8817Z" fill="#FFBE9D"/>
<path d="M153.651 20.2531C153.657 20.3405 153.676 20.4265 153.708 20.5081C153.782 20.7324 153.871 20.9514 153.974 21.1637C154.036 21.3042 154.099 21.4551 154.172 21.6165C154.251 21.7893 154.356 21.949 154.484 22.09C154.629 22.2506 154.806 22.3784 155.004 22.4647C155.114 22.5112 155.231 22.5352 155.35 22.5352C155.469 22.5352 155.587 22.5112 155.696 22.4647C155.755 22.4405 155.808 22.4044 155.852 22.3587C155.896 22.313 155.929 22.2587 155.951 22.1993C155.98 22.0848 155.98 21.9651 155.951 21.8506C155.918 21.6426 155.869 21.4374 155.806 21.2366C155.701 20.9009 155.567 20.5752 155.405 20.2635C155.264 19.9929 155.134 19.7899 155.046 19.6494C155 19.574 154.948 19.5027 154.89 19.4361C154.924 19.517 154.964 19.5953 155.009 19.6702C155.093 19.816 155.207 20.0241 155.337 20.2947C155.491 20.6077 155.618 20.9332 155.717 21.2678C155.772 21.4648 155.818 21.6646 155.852 21.8662C155.876 21.9637 155.876 22.0654 155.852 22.1629C155.836 22.2094 155.81 22.252 155.776 22.2879C155.742 22.3237 155.7 22.352 155.655 22.371C155.558 22.4121 155.455 22.4333 155.35 22.4333C155.246 22.4333 155.142 22.4121 155.046 22.371C154.861 22.2934 154.696 22.1762 154.562 22.0276C154.437 21.8921 154.332 21.7397 154.25 21.5748C154.177 21.4239 154.114 21.2678 154.047 21.1325C153.936 20.9246 153.837 20.711 153.75 20.4924C153.724 20.4101 153.691 20.3301 153.651 20.2531Z" fill="#EB996E"/>
<path d="M155.623 22.4387C155.623 22.4387 155.623 22.4387 155.623 22.5116C155.618 22.5826 155.618 22.6539 155.623 22.7249C155.641 22.9856 155.71 23.2402 155.826 23.4743C156.004 23.8206 156.263 24.1188 156.581 24.3433C156.677 24.4138 156.787 24.4632 156.904 24.4883C157.02 24.5134 157.141 24.5136 157.257 24.489C157.386 24.4649 157.502 24.3968 157.585 24.2965C157.669 24.1892 157.714 24.0576 157.715 23.9218C157.701 23.6771 157.661 23.4346 157.596 23.1985C157.538 22.9695 157.476 22.7509 157.414 22.5428L157.075 21.45C156.982 21.143 156.909 20.888 156.867 20.7163C156.849 20.6216 156.822 20.5291 156.784 20.4405C156.788 20.5354 156.802 20.6296 156.826 20.7215C156.862 20.9036 156.919 21.1586 157.008 21.4708C157.096 21.783 157.205 22.1629 157.325 22.5688C157.382 22.777 157.44 22.9955 157.497 23.2193C157.558 23.4473 157.596 23.6809 157.611 23.9166C157.614 24.0296 157.577 24.1399 157.507 24.2288C157.437 24.3112 157.342 24.3694 157.237 24.3953C157.132 24.4149 157.025 24.4135 156.922 24.3912C156.818 24.3689 156.72 24.326 156.633 24.2652C156.326 24.065 156.069 23.796 155.884 23.4795C155.763 23.2565 155.686 23.0129 155.655 22.7614C155.629 22.5636 155.634 22.4387 155.623 22.4387Z" fill="#EB996E"/>
<path d="M156.415 24.213C156.415 24.213 156.415 24.213 156.384 24.2963C156.352 24.3796 156.352 24.4316 156.331 24.5409C156.283 24.846 156.283 25.1568 156.331 25.4619C156.392 25.9246 156.607 26.3535 156.94 26.6796C157.144 26.8772 157.416 26.9889 157.7 26.9919C157.777 26.9905 157.853 26.9737 157.924 26.9424C157.995 26.9111 158.058 26.866 158.111 26.8097C158.212 26.6888 158.274 26.5399 158.288 26.383C158.328 25.8252 158.328 25.2652 158.288 24.7074C158.246 24.187 158.21 23.7447 158.179 23.3544C158.148 22.9641 158.137 22.6571 158.127 22.4438C158.133 22.3311 158.133 22.2182 158.127 22.1055C158.127 22.1055 158.127 22.1367 158.127 22.194C158.127 22.2512 158.127 22.3345 158.127 22.4438C158.127 22.6571 158.127 22.9641 158.127 23.3596C158.127 23.7551 158.184 24.2078 158.215 24.7178C158.252 25.2671 158.252 25.8182 158.215 26.3674C158.203 26.5029 158.151 26.6317 158.064 26.7369C158.022 26.7849 157.97 26.8236 157.912 26.8504C157.853 26.8773 157.79 26.8918 157.726 26.893C157.468 26.8868 157.221 26.7848 157.034 26.6068C156.711 26.2974 156.5 25.889 156.436 25.4463C156.357 25.0396 156.35 24.6222 156.415 24.213Z" fill="#EB996E"/>
<path d="M123.605 22.5012L123.657 22.3711L123.735 22.4856C123.797 22.5747 123.884 22.6435 123.985 22.6834L124.11 22.7354L124.001 22.8135C123.908 22.8732 123.837 22.9606 123.798 23.0632L123.746 23.1881L123.673 23.0737C123.61 22.9858 123.523 22.9173 123.423 22.8759L123.298 22.8239L123.407 22.7458C123.495 22.6846 123.564 22.5998 123.605 22.5012Z" fill="#E0E0E0"/>
<path d="M158.262 8.12841L158.35 7.91506L158.486 8.10239C158.591 8.25619 158.74 8.37562 158.912 8.44584L159.126 8.53431L158.938 8.6696C158.783 8.77372 158.664 8.92254 158.595 9.09631L158.506 9.30967L158.371 9.12233C158.266 8.96853 158.117 8.84911 157.944 8.77888L157.726 8.69042L157.918 8.55512C158.071 8.44807 158.19 8.30016 158.262 8.12841Z" fill="#E0E0E0"/>
<path d="M156.738 0.359059L156.883 0L157.112 0.31743C157.29 0.576333 157.54 0.777231 157.83 0.895047L158.19 1.04075L157.872 1.26972C157.614 1.44849 157.414 1.69785 157.294 1.98784L157.149 2.3469L156.925 2.02947C156.744 1.77144 156.493 1.5709 156.202 1.45185L155.843 1.30614L156.16 1.08238C156.418 0.901775 156.619 0.650653 156.738 0.359059Z" fill="#E0E0E0"/>
<path d="M139.185 32.6639L139.055 32.2944L139.435 32.3881C139.74 32.4604 140.059 32.4459 140.356 32.3465L140.725 32.2164L140.637 32.5963C140.559 32.9006 140.574 33.2212 140.679 33.5173L140.803 33.8868L140.424 33.7931C140.119 33.7209 139.8 33.7353 139.503 33.8348L139.133 33.9648L139.227 33.585C139.299 33.2801 139.285 32.961 139.185 32.6639Z" fill="#E0E0E0"/>
<path d="M132.868 19.3166C132.207 20.1128 131.525 20.8777 130.885 21.6999C130.601 22.0427 130.395 22.4433 130.282 22.8738C130.169 23.3043 130.151 23.7544 130.23 24.1925C130.329 24.6376 130.519 25.0576 130.788 25.4263C131.056 25.7951 131.398 26.1049 131.791 26.3365C134.221 28.0017 137.197 29.4067 140.216 29.0372C142.267 28.7469 144.129 27.6817 145.419 26.0607C145.525 25.9277 145.574 25.7586 145.557 25.5897C145.539 25.4208 145.457 25.2654 145.326 25.1567C145.196 25.048 145.028 24.9946 144.859 25.0079C144.689 25.0213 144.532 25.1003 144.42 25.2281C143.452 26.4588 142.091 27.3203 140.564 27.6686C139.247 27.8974 137.894 27.7882 136.63 27.3512C135.42 26.9504 134.265 26.3961 133.196 25.7016C132.628 25.4207 132.128 25.0214 131.728 24.5308C131.543 24.2228 131.459 23.8648 131.487 23.5067C131.515 23.1485 131.654 22.808 131.884 22.5325C132.524 21.7207 133.211 20.9714 133.872 20.1492C133.983 20.016 134.036 19.8444 134.019 19.6722C134.003 19.4999 133.919 19.3411 133.786 19.2307C133.653 19.1203 133.482 19.0673 133.309 19.0834C133.137 19.0995 132.978 19.1834 132.868 19.3166Z" fill="#83BF4F"/>
<path d="M146.397 4.95916C147.022 4.20982 147.641 3.46048 148.266 2.71634C148.427 2.48843 148.639 2.30022 148.884 2.16592C149.129 2.03161 149.402 1.9547 149.681 1.94098C150.451 1.94098 150.935 2.46136 151.429 2.98173C153.178 4.78224 154.802 7.09271 154.978 9.67378C155.055 11.4078 154.463 13.105 153.324 14.4144C153.218 14.5474 153.169 14.7165 153.186 14.8854C153.204 15.0543 153.286 15.2097 153.417 15.3184C153.547 15.4271 153.715 15.4805 153.884 15.4672C154.054 15.4538 154.211 15.3748 154.323 15.247C155.535 13.8495 156.239 12.0837 156.321 10.2358C156.317 8.6341 155.896 7.06111 155.098 5.67208C154.376 4.38047 153.482 3.19345 152.439 2.14393C151.922 1.48582 151.224 0.9937 150.43 0.728501C149.962 0.611822 149.472 0.610035 149.003 0.723286C148.534 0.836538 148.099 1.06148 147.735 1.37897C146.888 2.23144 146.107 3.14642 145.398 4.11615C145.343 4.18176 145.302 4.25755 145.276 4.33922C145.25 4.42088 145.241 4.5068 145.248 4.59209C145.256 4.67738 145.28 4.76035 145.32 4.83628C145.359 4.91221 145.413 4.97961 145.479 5.03462C145.545 5.08963 145.62 5.13118 145.702 5.1569C145.784 5.18262 145.87 5.192 145.955 5.18451C146.04 5.17702 146.123 5.15281 146.199 5.11325C146.275 5.07369 146.342 5.01956 146.397 4.95396V4.95916Z" fill="#83BF4F"/>
<path d="M155.738 23.2662L154.369 24.3069V24.3485H154.333L153.563 25.9097C153.563 25.9097 155.962 28.2045 156.982 30.6971L159.011 28.267L159.063 28.1993L161.093 25.7692C158.428 25.2176 155.738 23.2662 155.738 23.2662Z" fill="#83BF4F"/>
<path d="M156.326 22.9589L153.349 26.5287C153.258 26.639 153.146 26.7302 153.019 26.797C152.892 26.8637 152.754 26.9048 152.611 26.9179C152.468 26.931 152.325 26.9157 152.188 26.873C152.051 26.8304 151.924 26.7611 151.814 26.6692C151.7 26.5776 151.606 26.4639 151.537 26.3349C151.467 26.2059 151.425 26.0643 151.412 25.9185C151.399 25.7728 151.415 25.6259 151.46 25.4866C151.505 25.3473 151.578 25.2186 151.674 25.1081L154.65 21.5383C154.742 21.428 154.854 21.3368 154.981 21.2701C155.107 21.2033 155.246 21.1622 155.389 21.1491C155.531 21.136 155.675 21.1513 155.812 21.194C155.949 21.2367 156.076 21.3059 156.186 21.3978C156.3 21.4894 156.394 21.6031 156.463 21.7321C156.532 21.8611 156.575 22.0027 156.588 22.1485C156.601 22.2942 156.585 22.4411 156.54 22.5804C156.495 22.7197 156.422 22.8484 156.326 22.9589Z" fill="#83BF4F"/>
<path d="M143.957 1.3584L136.932 9.79891L136.557 10.2464L129.907 18.2134C130.026 18.4111 145.924 33.065 153.391 23.5212C161.457 14.4303 144.18 1.44687 143.957 1.3584Z" fill="#83BF4F"/>
<path d="M143.957 1.3584C144.017 1.38553 144.073 1.42053 144.123 1.46248C144.233 1.53533 144.389 1.64461 144.586 1.80072C144.992 2.10254 145.575 2.56567 146.304 3.19533C148.363 4.96182 150.241 6.92997 151.908 9.07038C153.067 10.5525 154.027 12.1794 154.765 13.9099C155.672 15.9045 155.881 18.1463 155.358 20.2741C155.034 21.4101 154.466 22.4615 153.693 23.3547C152.96 24.3413 152.041 25.1741 150.987 25.8057C149.871 26.4318 148.623 26.7882 147.344 26.8464C146.038 26.9053 144.731 26.7632 143.468 26.4249C140.785 25.6622 138.235 24.4934 135.907 22.9592C134.777 22.2411 133.705 21.4866 132.685 20.7112C132.165 20.3209 131.686 19.9254 131.213 19.53L130.505 18.9263C130.271 18.713 130.063 18.5464 129.813 18.2863L129.756 18.2238L129.823 18.1405C133.986 13.1709 137.52 8.96631 140.012 5.98975L142.916 2.55527L143.686 1.65502L143.889 1.43125C143.909 1.40487 143.932 1.38047 143.957 1.3584C143.939 1.39026 143.919 1.41995 143.894 1.44686L143.697 1.69144L142.942 2.62812L140.09 6.10944L130.016 18.2758L129.933 18.1926L130.026 18.1353L130.057 18.1666L130.141 18.2394L130.307 18.3955L130.646 18.6921L131.369 19.3166C131.848 19.7121 132.337 20.0972 132.841 20.4822C133.856 21.2524 134.923 22.0017 136.047 22.7147C138.356 24.2352 140.882 25.3951 143.54 26.1543C144.776 26.4851 146.056 26.6255 147.334 26.5707C148.571 26.5108 149.776 26.1652 150.857 25.5611C151.884 24.9446 152.781 24.1353 153.5 23.1778C154.252 22.3119 154.806 21.2926 155.124 20.1908C155.636 18.1151 155.438 15.9277 154.562 13.9775C153.838 12.268 152.897 10.659 151.762 9.19007C150.112 7.04668 148.262 5.06548 146.236 3.27339C145.518 2.66455 144.951 2.14417 144.56 1.84235L144.113 1.48329L143.957 1.3584Z" fill="#263238"/>
<g opacity="0.3">
<path d="M143.957 1.3584C144.998 2.21182 145.982 2.97677 146.903 3.81458C153.121 9.46067 157.128 15.8509 154.885 21.2732L153.168 23.8751C153.168 23.8751 154.979 17.2247 151.607 12.4268C148.235 7.62894 143.593 2.17019 143.593 2.17019L143.957 1.3584Z" fill="black"/>
</g>
<path d="M165.365 24.4265L156.597 34.9277C156.255 34.6432 155.973 34.2942 155.767 33.9006C155.56 33.507 155.433 33.0766 155.393 32.6339C155.353 32.1912 155.4 31.745 155.533 31.3206C155.665 30.8963 155.88 30.5023 156.165 30.1611L160.609 24.8584C160.894 24.5169 161.243 24.2347 161.636 24.0281C162.03 23.8216 162.46 23.6946 162.903 23.6545C163.346 23.6144 163.792 23.6619 164.216 23.7944C164.64 23.9268 165.035 24.1416 165.376 24.4265H165.365Z" fill="#83BF4F"/>
<path d="M166.672 22.5901L154.904 36.7149L161.7 42.3776L173.469 28.2528L166.672 22.5901Z" fill="#7ADD8A"/>
<path d="M166.678 26.16L158.353 36.151L161.684 38.9257L170.008 28.9347L166.678 26.16Z" fill="#455A64"/>
<path d="M141.256 13.1552L144.534 13.9461L147.047 11.6929L147.308 15.0545L150.232 16.7458L147.11 18.0363L146.407 21.3407L144.217 18.77L140.86 19.1187L142.624 16.241L141.256 13.1552Z" fill="white"/>
<path d="M149.816 25.1028L149.775 25.1392L149.655 25.2329C149.491 25.3491 149.317 25.4501 149.135 25.5347C148.855 25.6676 148.559 25.7655 148.255 25.8261C147.855 25.9083 147.446 25.9449 147.038 25.9354C146.541 25.9282 146.047 25.8777 145.56 25.7845L144.743 25.6284C144.467 25.5659 144.186 25.4879 143.894 25.4202C142.643 25.0729 141.424 24.6167 140.252 24.0568C139.076 23.4998 137.934 22.8725 136.833 22.1783C135.792 21.5434 134.918 20.9294 134.174 20.4142C133.43 19.899 132.836 19.4567 132.431 19.1549L131.988 18.7958L131.863 18.7074L131.827 18.6709L131.869 18.7022L131.988 18.7958L132.462 19.1341C132.878 19.4307 133.477 19.8574 134.221 20.3726C134.965 20.8877 135.86 21.4966 136.88 22.1262C137.975 22.8169 139.109 23.4424 140.278 23.9996C141.451 24.5563 142.669 25.0107 143.92 25.3578C144.212 25.4306 144.493 25.5087 144.769 25.5711L145.58 25.7325C146.066 25.8228 146.559 25.8733 147.053 25.8834C147.46 25.8963 147.867 25.8631 148.266 25.7845C148.567 25.7261 148.861 25.6318 149.14 25.5035C149.322 25.4219 149.496 25.3244 149.66 25.2121L149.785 25.1236L149.816 25.1028Z" fill="white"/>
<path d="M151.981 25.4722C151.952 25.5456 151.933 25.6226 151.924 25.7012C151.918 25.7984 151.935 25.8956 151.972 25.9856C152.009 26.0757 152.065 26.1563 152.137 26.2216C152.282 26.3447 152.45 26.4368 152.632 26.4922C152.767 26.539 152.856 26.565 152.856 26.5702C152.774 26.5697 152.693 26.5557 152.616 26.5286C152.424 26.4819 152.246 26.3911 152.096 26.2632C152.026 26.1962 151.971 26.1153 151.934 26.0257C151.897 25.936 151.88 25.8397 151.882 25.7428C151.89 25.6824 151.91 25.6241 151.94 25.5711L151.981 25.4722Z" fill="white"/>
<path d="M156.68 30.13C156.68 30.13 156.643 30.1769 156.581 30.2653C156.487 30.3856 156.401 30.5125 156.326 30.6452C156.07 31.0827 155.916 31.5715 155.873 32.0763C155.837 32.5819 155.909 33.0895 156.086 33.5645C156.142 33.7071 156.206 33.8461 156.279 33.9808C156.308 34.0285 156.333 34.0791 156.352 34.1317L156.326 34.1005L156.258 33.9912C156.18 33.8587 156.111 33.7214 156.05 33.5801C155.858 33.1035 155.777 32.5889 155.816 32.0763C155.873 31.4059 156.132 30.7688 156.56 30.2497L156.648 30.1561C156.648 30.1561 156.68 30.1248 156.68 30.13Z" fill="white"/>
<path d="M153.813 26.534C154.417 25.9424 154.895 25.2343 155.218 24.4524C155.375 24.0634 155.415 23.6368 155.333 23.2253C155.251 22.8138 155.05 22.4354 154.755 22.1368L151.112 26.2998L155.192 31.6232C156.373 29.5938 155.405 27.1844 153.813 26.534Z" fill="#FFBE9D"/>
<path d="M155.926 30.7649C155.926 30.7649 155.926 30.7337 155.926 30.6712C155.926 30.6088 155.967 30.5203 155.983 30.3954C156.04 30.0422 156.04 29.6819 155.983 29.3287C155.895 28.7867 155.691 28.2702 155.385 27.8144C155.002 27.2318 154.46 26.7712 153.823 26.4874V26.5655C154.123 26.2448 154.404 25.9078 154.666 25.5559C154.953 25.1785 155.168 24.7517 155.301 24.2966C155.397 23.9017 155.397 23.4895 155.301 23.0945C155.22 22.7166 155.022 22.3741 154.734 22.1162L154.698 22.085L154.666 22.1214L152.065 25.1396L151.32 26.0139L151.123 26.2532C151.076 26.3105 151.055 26.3365 151.06 26.3417L151.133 26.2636L151.341 26.0399L152.111 25.176L154.739 22.1891H154.672C154.937 22.4362 155.119 22.76 155.192 23.1154C155.275 23.4956 155.264 23.8903 155.161 24.2654C155.034 24.7092 154.826 25.1256 154.547 25.4935C154.289 25.8424 154.012 26.1776 153.719 26.4978L153.672 26.5446H153.735C154.367 26.8152 154.909 27.2612 155.296 27.83C155.599 28.2752 155.806 28.7784 155.905 29.3078C155.968 29.6511 155.98 30.0018 155.941 30.3486C155.967 30.6348 155.926 30.7649 155.926 30.7649Z" fill="#EB996E"/>
<path d="M156.118 30.4678C157.601 28.5164 159.428 26.4869 160.911 24.5303L156.118 30.4678Z" fill="#83BF4F"/>
<path d="M160.911 24.5201C160.245 25.6092 159.476 26.632 158.616 27.5747C157.976 28.3396 157.393 29.0265 156.878 29.6562C156.657 29.9588 156.402 30.2348 156.118 30.4784C156.782 29.3896 157.549 28.3668 158.408 27.4238L160.151 25.3423C160.375 25.0426 160.63 24.7671 160.911 24.5201Z" fill="#263238"/>
<path d="M94.2969 166.339L93.6465 166.177C93.6465 166.177 86.4496 176.153 84.3161 175.752L89.8841 153.777L97.1174 155.931C94.7757 158.814 93.7401 162.191 94.2969 166.339Z" fill="#455A64"/>
<path d="M94.2189 157.559C94.2078 157.332 94.1129 157.116 93.9526 156.954C93.7922 156.791 93.5776 156.694 93.3499 156.68C93.1222 156.684 92.9046 156.774 92.7412 156.933C92.5778 157.091 92.481 157.306 92.4704 157.533C92.4817 157.775 92.5822 158.003 92.7524 158.174C92.9226 158.345 93.1504 158.447 93.3915 158.46C93.6289 158.432 93.8465 158.314 93.9988 158.13C94.1511 157.945 94.2262 157.709 94.2085 157.471" fill="white"/>
<path d="M89.8843 153.777L91.6224 154.297L85.6745 175.164C85.6745 175.164 84.998 176.033 84.3371 175.752L89.8843 153.777Z" fill="#263238"/>
<path d="M93.5637 166.239C93.4596 166.208 93.5637 165.657 93.3347 165.042C93.1058 164.428 92.7415 164.033 92.8144 163.944C92.8872 163.856 93.4648 164.173 93.7042 164.923C93.9436 165.672 93.6574 166.286 93.5637 166.239Z" fill="#263238"/>
<path d="M92.028 168.3C91.9188 168.3 91.8511 167.78 91.5077 167.312C91.1642 166.843 90.6907 166.604 90.7219 166.5C90.7531 166.396 91.3776 166.5 91.8147 167.083C92.2518 167.665 92.1321 168.326 92.028 168.3Z" fill="#263238"/>
<path d="M88.9371 168.909C88.9371 168.81 89.5147 168.795 90.0299 169.222C90.5451 169.648 90.6544 170.205 90.5503 170.226C90.4462 170.247 90.2121 169.862 89.7801 169.518C89.3482 169.175 88.9215 169.019 88.9371 168.909Z" fill="#263238"/>
<path d="M117.074 213.344L116.825 213.922C116.825 213.922 124.885 222.071 124.188 223.97L104.851 215.498L107.942 209.181C109.077 210.489 110.48 211.537 112.056 212.255C113.631 212.973 115.343 213.345 117.074 213.344Z" fill="#455A64"/>
<path d="M108.998 212.069C108.787 212.043 108.574 212.096 108.4 212.218C108.226 212.34 108.103 212.523 108.056 212.73C108.023 212.939 108.072 213.154 108.192 213.329C108.312 213.504 108.494 213.626 108.701 213.672C108.925 213.696 109.15 213.638 109.333 213.507C109.517 213.377 109.646 213.183 109.695 212.964C109.707 212.742 109.632 212.524 109.487 212.356C109.341 212.189 109.136 212.084 108.915 212.064" fill="white"/>
<path d="M104.851 215.498L105.595 213.979L123.855 222.68C123.855 222.68 124.552 223.429 124.188 223.996L104.851 215.498Z" fill="#263238"/>
<path d="M116.897 214.005C116.85 214.099 116.377 213.937 115.762 214.036C115.148 214.135 114.722 214.421 114.67 214.349C114.618 214.276 114.982 213.787 115.71 213.677C116.439 213.568 116.928 213.937 116.897 214.005Z" fill="#263238"/>
<path d="M118.526 215.738C118.526 215.837 118.032 215.816 117.532 216.076C117.033 216.336 116.762 216.716 116.668 216.669C116.575 216.623 116.752 216.066 117.371 215.759C117.99 215.452 118.568 215.644 118.526 215.738Z" fill="#263238"/>
<path d="M118.615 218.668C118.521 218.668 118.615 218.147 119.062 217.71C119.51 217.273 120.067 217.289 120.072 217.388C120.077 217.486 119.681 217.637 119.302 217.981C118.922 218.324 118.714 218.704 118.615 218.668Z" fill="#263238"/>
<path d="M107.531 58.5426C107.495 58.3497 107.389 58.1768 107.234 58.0575C107.078 57.9383 106.883 57.8812 106.688 57.8973H106.636C106.491 57.9262 106.358 57.9968 106.253 58.1004C106.149 58.2039 106.076 58.3359 106.046 58.4801C106.015 58.6242 106.027 58.7742 106.081 58.9115C106.134 59.0488 106.227 59.1674 106.347 59.2527C106.467 59.338 106.61 59.3862 106.757 59.3913C106.904 59.3965 107.05 59.3584 107.176 59.2818C107.302 59.2052 107.402 59.0933 107.466 58.9601C107.529 58.8269 107.551 58.6782 107.531 58.5322V58.5426Z" fill="#455A64"/>
<path d="M108.264 69.621L112.844 82.2661L123.829 100.115L124.157 81.1786L120.998 66.5456H120.743L118.474 76.2194L115.461 72.5767L108.608 67.8049L108.264 69.621Z" fill="#FAFAFA"/>
<path d="M122.751 74.6791C122.49 74.4211 122.257 74.1369 122.054 73.8309C121.846 73.5655 121.596 73.248 121.305 72.9046C121.003 72.5271 120.653 72.1912 120.264 71.9055L120.467 71.817C120.424 71.9937 120.37 72.1674 120.306 72.3374C119.858 73.4562 119.343 74.3929 119.01 75.0954C118.677 75.7979 118.516 76.2402 118.49 76.235C118.527 75.8093 118.649 75.3954 118.849 75.0173C119.135 74.294 119.629 73.3313 120.061 72.2437C120.122 72.0911 120.172 71.9346 120.212 71.7754L120.259 71.588L120.415 71.6921C120.83 71.9925 121.196 72.3539 121.503 72.7641C121.789 73.1232 122.023 73.4614 122.215 73.7424C122.434 74.0299 122.614 74.3448 122.751 74.6791Z" fill="#263238"/>
<path d="M123.828 100.115C123.733 99.8219 123.665 99.5205 123.625 99.2149C123.5 98.5905 123.334 97.7579 123.136 96.7535C122.714 94.672 122.095 91.8152 121.393 88.6565C120.69 85.4978 120.045 82.6825 119.571 80.5698C119.348 79.5707 119.166 78.7433 119.051 78.1188C118.97 77.8204 118.915 77.5158 118.885 77.2082C118.995 77.4962 119.083 77.7918 119.15 78.0928C119.306 78.6652 119.519 79.4978 119.78 80.5282C120.3 82.6097 120.971 85.4353 121.674 88.594C122.376 91.7527 122.969 94.6304 123.344 96.7171C123.526 97.7579 123.672 98.6113 123.75 99.1993C123.795 99.5026 123.822 99.8085 123.828 100.115Z" fill="#263238"/>
<path d="M121.695 65.5312C118.651 67.7532 111.995 68.1591 109.18 67.977C105.387 67.7116 101.286 66.1504 97.6433 65.1721C93.8498 64.1782 90.3581 64.2407 86.5749 64.7819C82.7918 65.323 78.2801 67.9041 76.0529 70.9639L77.614 72.6343C77.614 72.6343 82.8178 68.31 87.5636 67.6751C92.1117 67.0767 94.9218 68.0446 100.261 69.4548C106.339 71.0628 113.687 70.7089 116.002 70.0845C118.23 69.4588 120.36 68.5252 122.33 67.3109L121.695 65.5312Z" fill="#455A64"/>
<path d="M109.357 72.6339C109.52 72.7209 109.673 72.8275 109.81 72.9514C110.086 73.1647 110.481 73.4718 110.97 73.8828C111.943 74.679 113.276 75.7978 114.733 77.0415L114.811 77.1092L114.592 77.182C114.842 76.0216 115.081 74.934 115.289 73.9817L115.331 73.7892L115.477 73.9089C116.309 74.5854 116.996 75.1526 117.475 75.5533C117.737 75.752 117.979 75.975 118.198 76.2193C117.911 76.0597 117.639 75.8732 117.387 75.6625C116.866 75.2931 116.174 74.7519 115.331 74.1014L115.518 74.0338L114.858 77.2445L114.811 77.4682L114.634 77.3173L114.556 77.2497C113.099 76.006 111.787 74.8664 110.845 74.0338C110.372 73.6175 109.997 73.274 109.737 73.0346C109.594 72.918 109.466 72.7833 109.357 72.6339Z" fill="#263238"/>
<path d="M72.0093 85.1077C72.0405 84.9048 70.9686 80.8094 70.9686 80.8094L65.7648 78.4313L66.6807 83.1772C67.2727 83.7638 67.8945 84.3196 68.5436 84.8424C68.6321 84.8111 72.0093 85.1077 72.0093 85.1077Z" fill="#EB996E"/>
<path d="M79.8304 76.3807C79.947 77.7488 79.6552 79.1207 78.9919 80.3229C78.3287 81.5252 77.3239 82.5037 76.1044 83.1349C74.885 83.766 73.5058 84.0213 72.1413 83.8686C70.7768 83.7158 69.4882 83.1618 68.4386 82.2766C67.3889 81.3915 66.6253 80.215 66.2443 78.8958C65.8634 77.5767 65.8822 76.1742 66.2984 74.8657C66.7146 73.5572 67.5094 72.4016 68.5825 71.5449C69.6555 70.6882 70.9585 70.169 72.3266 70.0529C74.1607 69.8972 75.9816 70.4764 77.3887 71.663C78.7959 72.8496 79.6742 74.5466 79.8304 76.3807Z" fill="#83BF4F"/>
<g opacity="0.3">
<path d="M79.8304 76.3807C79.947 77.7488 79.6552 79.1207 78.9919 80.3229C78.3287 81.5252 77.3239 82.5037 76.1044 83.1349C74.885 83.766 73.5058 84.0213 72.1413 83.8686C70.7768 83.7158 69.4882 83.1618 68.4386 82.2766C67.3889 81.3915 66.6253 80.215 66.2443 78.8958C65.8634 77.5767 65.8822 76.1742 66.2984 74.8657C66.7146 73.5572 67.5094 72.4016 68.5825 71.5449C69.6555 70.6882 70.9585 70.169 72.3266 70.0529C74.1607 69.8972 75.9816 70.4764 77.3887 71.663C78.7959 72.8496 79.6742 74.5466 79.8304 76.3807Z" fill="black"/>
</g>
<path d="M79.8304 75.4807C79.947 76.8488 79.6552 78.2208 78.9919 79.423C78.3287 80.6253 77.3239 81.6038 76.1044 82.235C74.885 82.8661 73.5058 83.1214 72.1413 82.9687C70.7768 82.8159 69.4882 82.2619 68.4386 81.3767C67.3889 80.4916 66.6253 79.315 66.2443 77.9959C65.8634 76.6767 65.8822 75.2743 66.2984 73.9658C66.7146 72.6573 67.5094 71.5017 68.5825 70.645C69.6555 69.7883 70.9585 69.2691 72.3266 69.153C74.1607 68.9973 75.9816 69.5765 77.3887 70.7631C78.7959 71.9497 79.6742 73.6467 79.8304 75.4807Z" fill="#83BF4F"/>
<g opacity="0.3">
<path d="M68.0654 76.771C67.9458 75.3565 68.3927 73.9523 69.308 72.8672C70.2233 71.7821 71.5321 71.1049 72.9465 70.9844H73.1703C72.4447 70.9431 71.7182 71.0501 71.0353 71.2988C70.3524 71.5476 69.7274 71.9329 69.1983 72.4312C68.6693 72.9295 68.2473 73.5304 67.9582 74.1972C67.6691 74.8641 67.5189 75.5828 67.5168 76.3096C67.5146 77.0364 67.6606 77.756 67.9458 78.4245C68.2311 79.093 68.6495 79.6963 69.1756 80.1977C69.7018 80.6992 70.3246 81.0881 71.006 81.3408C71.6874 81.5936 72.4132 81.7048 73.1391 81.6677C71.8434 81.6054 70.6146 81.0744 69.6813 80.1736C68.7479 79.2728 68.1737 78.0636 68.0654 76.771Z" fill="black"/>
</g>
<g opacity="0.3">
<path d="M75.8083 71.8119L76.9479 70.4225L77.8169 71.1615L76.594 72.4312L75.8083 71.8119Z" fill="white"/>
</g>
<path d="M78.2435 75.8604C78.161 75.4312 78.0533 75.0072 77.9209 74.5907C77.5106 73.4695 76.7401 72.516 75.7301 71.8795C74.9873 71.4153 74.1403 71.144 73.266 71.0904C72.3918 71.0368 71.518 71.2025 70.724 71.5725C70.2672 71.7822 69.8444 72.0594 69.4699 72.3947C69.0726 72.7387 68.7335 73.1446 68.4656 73.5968C67.8858 74.5428 67.6236 75.6494 67.7172 76.755C67.8108 77.8606 68.2554 78.9074 68.986 79.7424C69.3275 80.1411 69.7296 80.4836 70.1776 80.7572C70.6037 81.0266 71.0689 81.2285 71.5566 81.3556C72.2653 81.5458 73.0058 81.5865 73.731 81.4752C74.4562 81.3639 75.1504 81.103 75.7694 80.709C76.3885 80.3151 76.9188 79.7968 77.3268 79.1869C77.7348 78.5771 78.0115 77.8891 78.1394 77.1666C78.2018 76.7338 78.2365 76.2976 78.2435 75.8604C78.3144 76.2999 78.3144 76.7479 78.2435 77.1874C78.1285 77.9409 77.8557 78.6617 77.4429 79.3025C77.03 79.9432 76.4864 80.4896 75.8478 80.9057C75.2091 81.3218 74.4898 81.5983 73.7368 81.7171C72.9839 81.8359 72.2143 81.7943 71.4786 81.595C70.4319 81.317 69.4917 80.7337 68.7778 79.9194C68.0022 79.0406 67.5306 77.9351 67.4331 76.7671C67.3356 75.599 67.6174 74.4307 68.2366 73.4355C68.5163 72.9659 68.8674 72.5428 69.2774 72.1814C69.6714 71.8306 70.1173 71.5427 70.5991 71.3279C71.4875 70.9211 72.4685 70.7594 73.4404 70.8596C74.473 70.9691 75.4521 71.3738 76.2606 72.0254C77.069 72.6769 77.6726 73.5477 77.9989 74.5335C78.1546 74.9589 78.2373 75.4075 78.2435 75.8604Z" fill="#263238"/>
<path d="M70.365 70.1989C70.365 70.2457 69.9799 70.3498 69.4491 70.7193C68.7763 71.2273 68.1879 71.8385 67.7058 72.5302C67.2044 73.2055 66.8499 73.9784 66.6651 74.799C66.5194 75.4287 66.5142 75.8398 66.4726 75.8398C66.3922 75.4852 66.3922 75.1171 66.4726 74.7626C66.6175 73.8913 66.975 73.0691 67.5133 72.3689C68.0115 71.6505 68.6441 71.0355 69.3763 70.5579C69.6669 70.3502 70.0088 70.2261 70.365 70.1989Z" fill="white"/>
<path d="M71.6868 69.7307C71.6868 69.8035 71.5828 69.8972 71.4058 69.9492C71.2289 70.0013 71.0676 69.9492 71.0468 69.9024C71.026 69.8556 71.1561 69.7307 71.333 69.6838C71.5099 69.637 71.6712 69.6578 71.6868 69.7307Z" fill="white"/>
<path d="M75.174 80.2732C74.6448 80.628 74.0412 80.8567 73.4096 80.9415C72.7781 81.0263 72.1355 80.965 71.5314 80.7623C71.5314 80.6843 72.3796 80.8144 73.3839 80.6739C74.3883 80.5333 75.1428 80.2003 75.174 80.2732Z" fill="white"/>
<path d="M78.2596 78.5196C78.1972 78.478 78.3117 78.1762 78.4106 77.7963C78.5094 77.4164 78.5511 77.0938 78.6291 77.0886C78.7072 77.0834 78.7852 77.4373 78.6707 77.864C78.5563 78.2907 78.3221 78.5613 78.2596 78.5196Z" fill="white"/>
<g opacity="0.3">
<path d="M73.6279 74.2941V79.092H72.5143V75.184H71.5568V74.2941H73.6279Z" fill="black"/>
</g>
<path d="M72.3321 84.4987C71.3382 84.0876 67.7944 83.6557 67.7944 83.6557L68.0754 82.0217C68.0754 82.0217 70.0633 81.4285 70.5993 80.5647C70.7511 80.2912 70.8343 79.9849 70.8415 79.6722C70.8488 79.3594 70.7799 79.0496 70.6409 78.7694L69.5429 79.0816C70.0945 78.5196 69.7771 77.4216 69.7771 77.4216L68.5542 77.6818C68.6618 77.6016 68.7511 77.4996 68.8165 77.3825C68.8819 77.2653 68.9218 77.1357 68.9336 77.0021C68.9454 76.8684 68.9288 76.7338 68.8849 76.607C68.8411 76.4802 68.7709 76.3642 68.6791 76.2664L67.732 76.5734C68.3044 75.9489 67.2845 75.2673 67.2845 75.2673C67.2845 75.2673 62.9758 78.6289 62.6948 79.092C62.4138 79.5552 63.033 80.7885 63.033 80.7885C62.6892 81.1871 62.4687 81.677 62.3981 82.1987C62.3721 82.9168 63.2828 83.1822 63.2828 83.1822C63.2279 83.563 63.2527 83.9511 63.3556 84.3218C63.5326 84.915 66.3946 86.5698 66.3946 86.5698L70.157 90.3634L73.9401 85.1908C73.9401 85.1908 73.3261 84.9098 72.3321 84.4987Z" fill="#FFBE9D"/>
<path d="M70.584 78.8215C70.2985 79.006 69.9807 79.1349 69.6473 79.2013C68.8726 79.3947 68.1113 79.6381 67.3681 79.9299C66.9732 80.1 66.6078 80.3319 66.2857 80.6168C65.9891 80.8874 65.7653 81.1371 65.5311 81.3869C65.1044 81.8448 64.7662 82.053 64.7454 82.0218C64.7246 81.9906 65.0056 81.746 65.3906 81.262C65.6146 80.9717 65.8562 80.6954 66.114 80.4346C66.4467 80.1183 66.8324 79.8629 67.2536 79.6801C68.0125 79.3828 68.7985 79.1597 69.6005 79.014C69.9222 78.9219 70.2513 78.8575 70.584 78.8215Z" fill="#EB996E"/>
<path d="M69.8556 84.0254C69.8556 84.0931 68.9605 83.8954 67.7741 83.9474H67.5919L67.644 83.7705C67.7116 83.5311 67.7793 83.2501 67.8313 83.0003C67.9052 82.6416 67.9539 82.2782 67.977 81.9127V81.8034H68.0915C68.5064 81.7573 68.9107 81.643 69.2884 81.4652C69.5798 81.3455 69.7463 81.257 69.7619 81.2831C69.7775 81.3091 69.637 81.434 69.3612 81.6005C68.9759 81.8389 68.5453 81.9948 68.0967 82.0584L68.2164 81.9387C68.2039 82.3181 68.1603 82.6957 68.0863 83.068C68.0346 83.3355 67.9669 83.5996 67.8834 83.8589L67.7533 83.6872C68.4708 83.6344 69.1908 83.7502 69.8556 84.0254Z" fill="#EB996E"/>
<path d="M64.2404 80.3615C64.4137 80.1063 64.6222 79.8768 64.8596 79.6798L65.5881 78.9617C65.7296 78.8084 65.8886 78.6722 66.0617 78.5558C66.2505 78.4371 66.449 78.3344 66.6549 78.2488C67.3658 77.9726 68.0986 77.7568 68.8457 77.6035C69.1486 77.5135 69.4615 77.4611 69.7772 77.4474C69.5044 77.6085 69.2075 77.7244 68.8977 77.7909C68.3461 77.9678 67.5656 78.1708 66.7642 78.4986C66.571 78.5765 66.3848 78.6705 66.2074 78.7796C66.0456 78.8846 65.8956 79.0067 65.7599 79.1439L64.9949 79.8151C64.7704 80.0319 64.5164 80.2158 64.2404 80.3615Z" fill="#EB996E"/>
<path d="M63.5221 79.2584C63.4961 79.2272 63.7354 78.9826 64.1413 78.6132L64.8595 77.9783L65.2914 77.6036L65.5203 77.4111L65.64 77.3122C65.6874 77.2766 65.7379 77.2452 65.7909 77.2186C66.4462 76.9232 67.1207 76.6729 67.81 76.4692C68.087 76.3555 68.3804 76.287 68.679 76.2663C68.4295 76.4271 68.1601 76.5548 67.8776 76.6462C67.3573 76.8595 66.6495 77.1145 65.921 77.4579L65.8065 77.5256L65.6869 77.6193L65.4579 77.8118L65.0156 78.1709L64.261 78.7641C64.0398 78.9636 63.7909 79.1301 63.5221 79.2584Z" fill="#EB996E"/>
<path d="M79.4874 49.2743L79.6799 48.7955L79.9766 49.217C80.2147 49.5562 80.5452 49.8199 80.9289 49.9768L81.4076 50.1745L80.9861 50.4711C80.6456 50.7057 80.3815 51.035 80.2263 51.4182L80.0286 51.897L79.732 51.4755C79.4938 51.1363 79.1633 50.8726 78.7797 50.7157L78.301 50.518L78.7277 50.2214C79.0653 49.9837 79.3287 49.6554 79.4874 49.2743Z" fill="#83BF4F"/>
<path d="M144.358 104.273L144.55 103.794L144.847 104.216C145.085 104.555 145.416 104.819 145.799 104.975L146.278 105.173L145.851 105.47C145.513 105.709 145.25 106.039 145.091 106.422L144.899 106.896L144.602 106.474C144.364 106.135 144.034 105.871 143.65 105.714L143.171 105.517L143.598 105.22C143.936 104.982 144.199 104.654 144.358 104.273Z" fill="#83BF4F"/>
<path d="M155.551 82.0733L155.744 81.5998L156.04 82.0213C156.28 82.3593 156.61 82.6227 156.992 82.781L157.471 82.9788L157.05 83.2754C156.711 83.5115 156.447 83.8403 156.29 84.2225L156.092 84.7012L155.796 84.2797C155.557 83.9405 155.227 83.6768 154.843 83.52L154.365 83.3222L154.791 83.0256C155.13 82.7875 155.394 82.4569 155.551 82.0733Z" fill="#83BF4F"/>
<path d="M60.832 46.6568L60.9465 46.381L61.1183 46.6255C61.2555 46.8232 61.4471 46.9769 61.6698 47.0679L61.9456 47.1823L61.7011 47.3541C61.5034 47.4913 61.3497 47.6829 61.2588 47.9057L61.1443 48.1815L60.9725 47.9369C60.8353 47.7392 60.6437 47.5855 60.4209 47.4946L60.1452 47.3801L60.3897 47.2084C60.5874 47.0712 60.7411 46.8795 60.832 46.6568Z" fill="#83BF4F"/>
<path d="M145.029 88.0372L145.143 87.7614L145.315 88.006C145.452 88.2039 145.643 88.3576 145.866 88.4483L146.147 88.5628L145.898 88.7345C145.703 88.8733 145.551 89.0646 145.46 89.2861L145.346 89.5619L145.174 89.3174C145.035 89.122 144.844 88.969 144.623 88.875L144.342 88.7658L144.586 88.5888C144.785 88.453 144.939 88.2609 145.029 88.0372Z" fill="#83BF4F"/>
<path d="M69.6002 32.0081L70.0634 31.2847L70.4589 32.0601C70.7761 32.6784 71.2637 33.193 71.8639 33.5432L72.6132 33.9803L71.8431 34.3758C71.2242 34.6942 70.7082 35.1813 70.3548 35.7808L69.9177 36.5301L69.5222 35.76C69.2057 35.1398 68.7181 34.6233 68.1172 34.2717L67.3678 33.8346L68.1432 33.4391C68.7566 33.1124 69.2626 32.6155 69.6002 32.0081Z" fill="#83BF4F"/>
</svg>
