<svg width="5" height="4" viewBox="0 0 5 4" fill="none" xmlns="http://www.w3.org/2000/svg">
<path d="M3.38296 3.66294C3.02532 3.8827 2.60486 4 2.17474 4C1.59796 4 1.04481 3.78929 0.636966 3.41421C0.229124 3.03914 0 2.53043 0 2C0 1.60444 0.127546 1.21776 0.366509 0.88886C0.605472 0.559962 0.94512 0.303617 1.3425 0.152242C1.73988 0.000866562 2.17715 -0.0387401 2.59901 0.0384303C3.02086 0.115601 3.40836 0.306082 3.71251 0.585787C4.01665 0.865492 4.22377 1.22186 4.30769 1.60982C4.3916 1.99778 4.34853 2.39992 4.18393 2.76537C4.01933 3.13082 3.74059 3.44318 3.38296 3.66294Z" fill="#3C3C43"/>
</svg>
