<svg width="15" height="15" viewBox="0 0 15 15" fill="none" xmlns="http://www.w3.org/2000/svg">
<mask id="mask0_2216_1595" style="mask-type:alpha" maskUnits="userSpaceOnUse" x="-2" y="-2" width="19" height="19">
<rect x="-1.87505" y="-1.87505" width="18.75" height="18.75" fill="#D9D9D9"/>
</mask>
<g mask="url(#mask0_2216_1595)">
<path d="M7.50538 15C6.47314 15 5.50129 14.8047 4.58984 14.414C3.67838 14.0234 2.88085 13.4863 2.19726 12.8027C1.51367 12.1191 0.976561 11.3219 0.585937 10.411C0.195312 9.50004 0 8.52673 0 7.49104C0 6.45534 0.195312 5.48502 0.585937 4.58007C0.976561 3.67512 1.51367 2.88085 2.19726 2.19726C2.88085 1.51367 3.67811 0.976561 4.58902 0.585937C5.49994 0.195312 6.47324 0 7.50893 0C8.54463 0 9.51496 0.195312 10.4199 0.585937C11.3249 0.976561 12.1191 1.51367 12.8027 2.19726C13.4863 2.88085 14.0234 3.67658 14.414 4.58445C14.8047 5.49232 15 6.46237 15 7.4946C15 8.52683 14.8047 9.49868 14.414 10.4101C14.0234 11.3216 13.4863 12.1191 12.8027 12.8027C12.1191 13.4863 11.3234 14.0234 10.4155 14.414C9.50765 14.8047 8.5376 15 7.50538 15ZM6.56249 13.5156V12.1875C6.30207 12.1875 6.08072 12.0957 5.89843 11.9121C5.71614 11.7285 5.62499 11.5078 5.62499 11.25V10.3125L1.54297 6.23046C1.49088 6.47785 1.45508 6.70572 1.43554 6.91405C1.41601 7.12238 1.40625 7.3177 1.40625 7.49999C1.40625 8.99738 1.89127 10.319 2.86132 11.4648C3.83137 12.6107 5.0651 13.2942 6.56249 13.5156ZM12.1875 11.3867C12.4219 11.1133 12.6269 10.8268 12.8027 10.5273C12.9785 10.2278 13.1241 9.91175 13.2394 9.57903C13.3548 9.24631 13.4427 8.90451 13.5031 8.55364C13.5635 8.20277 13.5937 7.85155 13.5937 7.49999C13.5937 6.26811 13.2552 5.14309 12.5781 4.12491C11.901 3.10674 10.9896 2.35677 9.84373 1.875V2.34375C9.84373 2.73046 9.70604 3.06152 9.43065 3.33691C9.15526 3.6123 8.8242 3.74999 8.43749 3.74999H6.56249V4.68749C6.56249 4.95312 6.47265 5.17577 6.29296 5.35546C6.11327 5.53515 5.89061 5.62499 5.62499 5.62499H4.68749V7.49999H9.37498C9.64061 7.49999 9.86326 7.58983 10.043 7.76952C10.2226 7.94921 10.3125 8.17186 10.3125 8.43749V10.3125H11.1133C11.4127 10.3125 11.6666 10.4166 11.875 10.625C12.0833 10.8333 12.1875 11.0872 12.1875 11.3867Z" fill="#3E4648"/>
</g>
</svg>
