<svg width="275" height="275" viewBox="0 0 275 275" fill="none" xmlns="http://www.w3.org/2000/svg">
<path fill-rule="evenodd" clip-rule="evenodd" d="M41.7801 38.7887C41.2741 39.2793 40.7717 39.7741 40.2729 40.2728C18.5284 62.0169 4.68521 90.4411 0.992514 121.01L0.968252 121.212C-2.2247 147.976 2.5189 175.09 14.6116 199.182C26.6647 223.195 45.4873 243.148 68.7501 256.578C68.8854 256.657 69.0209 256.735 69.1566 256.812C95.2781 271.775 125.593 277.754 155.447 273.824C185.457 269.873 213.324 256.13 234.727 234.727L137.5 137.5V0C119.443 0 101.563 3.55654 84.8811 10.4666C68.8994 17.0864 54.3168 26.6598 41.8941 38.6782L41.7801 38.7887Z" fill="#7ADD8A"/>
<path d="M234.727 234.727C253.957 215.497 267.053 190.997 272.358 164.325C277.663 137.653 274.94 110.006 264.533 84.881C254.126 59.7562 236.503 38.2816 213.891 23.1729C191.279 8.06424 164.695 2.05316e-06 137.5 0L137.5 137.5L234.727 234.727Z" fill="#ED4C5C"/>
</svg>
