<svg width="32" height="23" viewBox="0 0 32 23" fill="none" xmlns="http://www.w3.org/2000/svg">
<g clip-path="url(#clip0_2219_3523)">
<path d="M31.2933 3.50938C31.1097 2.83107 30.7517 2.21268 30.2548 1.71579C29.7579 1.21889 29.1396 0.860827 28.4613 0.67725C25.978 0 15.9838 0 15.9838 0C15.9838 0 5.98902 0.0204999 3.50577 0.69775C2.82746 0.881337 2.20908 1.23942 1.7122 1.73634C1.21533 2.23326 0.857302 2.85167 0.673774 3.53C-0.077351 7.94225 -0.368726 14.6655 0.694399 18.9013C0.877946 19.5796 1.23598 20.1979 1.73285 20.6948C2.22973 21.1917 2.8481 21.5498 3.5264 21.7334C6.00965 22.4106 16.0042 22.4106 16.0042 22.4106C16.0042 22.4106 25.9985 22.4106 28.4816 21.7334C29.16 21.5498 29.7784 21.1918 30.2753 20.6949C30.7722 20.198 31.1302 19.5796 31.3138 18.9013C32.106 14.4828 32.3501 7.76363 31.2933 3.50938Z" fill="#FF0000"/>
<path d="M12.8026 16.0073L21.0936 11.2051L12.8026 6.40283V16.0073Z" fill="white"/>
</g>
<defs>
<clipPath id="clip0_2219_3523">
<rect width="32" height="22.5" fill="white"/>
</clipPath>
</defs>
</svg>
