<svg width="18" height="15" viewBox="0 0 18 15" fill="none" xmlns="http://www.w3.org/2000/svg">
<mask id="mask0_1922_875" style="mask-type:alpha" maskUnits="userSpaceOnUse" x="-1" y="-3" width="20" height="20">
<rect x="-1" y="-3" width="20" height="20" fill="#D9D9D9"/>
</mask>
<g mask="url(#mask0_1922_875)">
<path d="M16.5 14V1.5H1.5V9H0V1.5C0 1.0875 0.146875 0.734376 0.440625 0.440626C0.734375 0.146876 1.0875 0 1.5 0H16.5C16.9125 0 17.2656 0.146876 17.5594 0.440626C17.8531 0.734376 18 1.0875 18 1.5V12.5C18 12.9028 17.8531 13.2535 17.5594 13.5521C17.2656 13.8507 16.9125 14 16.5 14ZM6 9C5.16667 9 4.45833 8.70833 3.875 8.125C3.29167 7.54167 3 6.83333 3 6C3 5.16667 3.29167 4.45833 3.875 3.875C4.45833 3.29167 5.16667 3 6 3C6.83333 3 7.54167 3.29167 8.125 3.875C8.70833 4.45833 9 5.16667 9 6C9 6.83333 8.70833 7.54167 8.125 8.125C7.54167 8.70833 6.83333 9 6 9ZM6.00442 7.5C6.41814 7.5 6.77083 7.35269 7.0625 7.05808C7.35417 6.76346 7.5 6.40929 7.5 5.99558C7.5 5.58186 7.35269 5.22917 7.05808 4.9375C6.76346 4.64583 6.40929 4.5 5.99558 4.5C5.58186 4.5 5.22917 4.64731 4.9375 4.94192C4.64583 5.23654 4.5 5.59071 4.5 6.00442C4.5 6.41814 4.64731 6.77083 4.94192 7.0625C5.23654 7.35417 5.59071 7.5 6.00442 7.5ZM0 15V13.0833C0 12.7222 0.0868056 12.3958 0.260417 12.1042C0.434028 11.8125 0.673611 11.5694 0.979167 11.375C1.72917 10.9167 2.53258 10.5729 3.3894 10.3438C4.2462 10.1146 5.1164 10 6 10C6.88889 10 7.75347 10.1146 8.59375 10.3438C9.43403 10.5729 10.2431 10.9167 11.0208 11.375C11.3264 11.5556 11.566 11.7959 11.7396 12.096C11.9132 12.3962 12 12.7253 12 13.0833V15H0ZM1.5 13.5H10.5V13C10.5 12.9281 10.479 12.8628 10.437 12.8039C10.395 12.7451 10.3396 12.6993 10.2708 12.6667C9.60417 12.2917 8.91319 12.0035 8.19792 11.8021C7.48264 11.6007 6.75 11.5 6 11.5C5.25 11.5 4.51389 11.6007 3.79167 11.8021C3.06944 12.0035 2.38194 12.2917 1.72917 12.6667C1.65972 12.7083 1.60417 12.7572 1.5625 12.8132C1.52083 12.8693 1.5 12.9315 1.5 13V13.5Z" fill="#3C3C43" fill-opacity="0.6"/>
</g>
</svg>
