<svg width="15" height="15" viewBox="0 0 15 15" fill="none" xmlns="http://www.w3.org/2000/svg">
<mask id="mask0_2216_1803" style="mask-type:alpha" maskUnits="userSpaceOnUse" x="-2" y="-2" width="19" height="20">
<rect x="-1.87506" y="-1.13285" width="18.7501" height="18.7501" fill="#D9D9D9"/>
</mask>
<g mask="url(#mask0_2216_1803)">
<path d="M8.20318 0.195314L14.297 3.69143C14.5183 3.82164 14.6909 3.99091 14.8146 4.19925C14.9383 4.40758 15.0001 4.64196 15.0001 4.90238V13.3985C15.0001 13.7853 14.8624 14.1163 14.587 14.3917C14.3116 14.6671 13.9806 14.8048 13.5938 14.8048H1.40626C1.01954 14.8048 0.688481 14.6671 0.413089 14.3917C0.137696 14.1163 0 13.7853 0 13.3985V4.90238C0 4.64196 0.0618494 4.40758 0.185548 4.19925C0.309247 3.99091 0.481774 3.82164 0.70313 3.69143L6.79692 0.195314C7.0129 0.0651046 7.24593 0 7.49603 0C7.74611 0 7.98182 0.0651046 8.20318 0.195314ZM7.50005 8.45709L13.5938 4.96097L7.50005 1.46485L1.40626 4.96097L7.50005 8.45709ZM6.79692 9.72663L1.40626 6.64067V13.3985H13.5938V6.64067L8.20318 9.72663C7.9872 9.85684 7.75417 9.92194 7.50407 9.92194C7.25399 9.92194 7.01828 9.85684 6.79692 9.72663Z" fill="#8A8A8E"/>
</g>
</svg>
