<svg width="32" height="32" viewBox="0 0 32 32" fill="none" xmlns="http://www.w3.org/2000/svg">
<path d="M24.1 2.07178L29.664 7.87178V29.9278H8.87903V29.9998H29.735V7.94478L24.1 2.07178Z" fill="#909090"/>
<path d="M24.031 2H8.80798V29.928H29.664V7.873L24.031 2Z" fill="#F4F4F4"/>
<path d="M8.65501 3.5H2.26501V10.327H22.365V3.5H8.65501Z" fill="#7A7B7C"/>
<path d="M22.472 10.2109H2.39502V3.37891H22.472V10.2109Z" fill="#DD2025"/>
<path d="M9.052 4.53418H7.745V9.33418H8.77299V7.71518L9 7.72818C9.22057 7.72439 9.43906 7.68488 9.647 7.61118C9.8293 7.54848 9.99701 7.44949 10.14 7.32018C10.2855 7.197 10.4002 7.04154 10.475 6.86618C10.5753 6.57468 10.6111 6.26488 10.58 5.95818C10.5738 5.73909 10.5353 5.52211 10.466 5.31418C10.4029 5.16409 10.3092 5.02878 10.1909 4.91688C10.0726 4.80497 9.93235 4.71891 9.779 4.66418C9.6464 4.61618 9.50941 4.58135 9.37 4.56018C9.26442 4.5439 9.15781 4.53521 9.05099 4.53418M8.862 6.82818H8.77299V5.34818H8.96599C9.05117 5.34204 9.13665 5.35512 9.21609 5.38645C9.29554 5.41778 9.36693 5.46656 9.425 5.52918C9.54531 5.6902 9.60959 5.88619 9.608 6.08718C9.608 6.33318 9.60799 6.55618 9.38599 6.71318C9.22606 6.80115 9.04402 6.84175 8.862 6.82818ZM12.533 4.52118C12.422 4.52118 12.314 4.52918 12.238 4.53218L12 4.53818H11.22V9.33818H12.138C12.4888 9.3478 12.8381 9.28834 13.166 9.16318C13.4299 9.05851 13.6636 8.88976 13.846 8.67218C14.0234 8.45264 14.1507 8.19702 14.219 7.92318C14.2976 7.61305 14.3359 7.2941 14.333 6.97418C14.3524 6.59634 14.3232 6.21757 14.246 5.84718C14.1728 5.57455 14.0357 5.32328 13.846 5.11418C13.6972 4.94535 13.515 4.80915 13.311 4.71418C13.1358 4.6331 12.9515 4.57334 12.762 4.53618C12.6867 4.52374 12.6104 4.51805 12.534 4.51918M12.352 8.45618H12.252V5.39218H12.265C12.4712 5.36846 12.6797 5.40566 12.865 5.49918C13.0007 5.60751 13.1112 5.74398 13.189 5.89918C13.273 6.06252 13.3213 6.24179 13.331 6.42518C13.34 6.64518 13.331 6.82518 13.331 6.97418C13.3351 7.14582 13.324 7.31748 13.298 7.48718C13.2672 7.66141 13.2102 7.82998 13.129 7.98718C13.0371 8.13334 12.9129 8.25649 12.766 8.34718C12.6426 8.42698 12.4965 8.46421 12.35 8.45318M17.43 4.53818H15V9.33818H16.028V7.43418H17.328V6.54218H16.028V5.43018H17.428V4.53818" fill="#464648"/>
<path d="M21.781 20.255C21.781 20.255 24.969 19.677 24.969 20.766C24.969 21.855 22.994 21.412 21.781 20.255ZM19.424 20.338C18.9175 20.4499 18.4239 20.6138 17.951 20.827L18.351 19.927C18.751 19.027 19.166 17.8 19.166 17.8C19.6433 18.6033 20.1987 19.3577 20.824 20.052C20.3524 20.1223 19.885 20.2185 19.424 20.34V20.338ZM18.162 13.838C18.162 12.889 18.469 12.63 18.708 12.63C18.947 12.63 19.216 12.745 19.225 13.569C19.1471 14.3976 18.9736 15.2143 18.708 16.003C18.3441 15.3408 18.1558 14.5966 18.161 13.841L18.162 13.838ZM13.513 24.354C12.535 23.769 15.564 21.968 16.113 21.91C16.11 21.911 14.537 24.966 13.513 24.354ZM25.9 20.895C25.89 20.795 25.8 19.688 23.83 19.735C23.0089 19.7218 22.1881 19.7797 21.377 19.908C20.5913 19.1164 19.9146 18.2235 19.365 17.253C19.7113 16.2524 19.9208 15.2097 19.988 14.153C19.959 12.953 19.672 12.265 18.752 12.275C17.832 12.285 17.698 13.09 17.819 14.288C17.9375 15.0931 18.1611 15.8791 18.484 16.626C18.484 16.626 18.059 17.949 17.497 19.265C16.935 20.581 16.551 21.271 16.551 21.271C15.5737 21.5891 14.6537 22.0618 13.826 22.671C13.002 23.438 12.667 24.027 13.101 24.616C13.475 25.124 14.784 25.239 15.954 23.706C16.5757 22.9142 17.1436 22.0817 17.654 21.214C17.654 21.214 19.438 20.725 19.993 20.591C20.548 20.457 21.219 20.351 21.219 20.351C21.219 20.351 22.848 21.99 24.419 21.932C25.99 21.874 25.914 20.993 25.904 20.897" fill="#DD2025"/>
<path d="M23.954 2.07715V7.95015H29.587L23.954 2.07715Z" fill="#909090"/>
<path d="M24.031 2V7.873H29.664L24.031 2Z" fill="#F4F4F4"/>
<path d="M8.97503 4.45704H7.66803V9.25704H8.70003V7.63904L8.92803 7.65204C9.1486 7.64824 9.3671 7.60873 9.57503 7.53504C9.75732 7.47231 9.92502 7.37332 10.068 7.24404C10.2124 7.12053 10.3261 6.96509 10.4 6.79004C10.5003 6.49853 10.5361 6.18874 10.505 5.88204C10.4988 5.66294 10.4604 5.44596 10.391 5.23804C10.3279 5.08794 10.2342 4.95264 10.1159 4.84073C9.99766 4.72882 9.85738 4.64276 9.70403 4.58804C9.57083 4.53957 9.43316 4.5044 9.29303 4.48304C9.18746 4.46675 9.08085 4.45806 8.97403 4.45704M8.78503 6.75104H8.69603V5.27104H8.89003C8.97521 5.26489 9.06068 5.27797 9.14013 5.3093C9.21958 5.34063 9.29097 5.38941 9.34903 5.45204C9.46935 5.61305 9.53362 5.80904 9.53203 6.01004C9.53203 6.25604 9.53203 6.47904 9.31003 6.63604C9.1501 6.724 8.96805 6.76361 8.78603 6.75004M12.456 4.44404C12.345 4.44404 12.237 4.45204 12.161 4.45504L11.926 4.46104H11.146V9.26104H12.064C12.4149 9.27065 12.7641 9.21119 13.092 9.08604C13.3559 8.98136 13.5896 8.81262 13.772 8.59504C13.9494 8.37549 14.0767 8.11987 14.145 7.84604C14.2236 7.53591 14.2619 7.21695 14.259 6.89704C14.2784 6.51919 14.2492 6.14042 14.172 5.77004C14.0988 5.4974 13.9617 5.24613 13.772 5.03704C13.6232 4.8682 13.4411 4.73201 13.237 4.63704C13.0618 4.55595 12.8775 4.49619 12.688 4.45904C12.6127 4.44659 12.5364 4.4409 12.46 4.44204M12.278 8.37904H12.178V5.31504H12.191C12.3972 5.29132 12.6058 5.32851 12.791 5.42204C12.9267 5.53036 13.0372 5.66684 13.115 5.82204C13.199 5.98537 13.2474 6.16464 13.257 6.34804C13.266 6.56804 13.257 6.74804 13.257 6.89704C13.2611 7.06867 13.2501 7.24034 13.224 7.41004C13.1932 7.58427 13.1362 7.75284 13.055 7.91004C12.9631 8.05619 12.8389 8.17934 12.692 8.27004C12.5687 8.34983 12.4225 8.38706 12.276 8.37604M17.353 4.46104H14.923V9.26104H15.951V7.35704H17.251V6.46504H15.951V5.35304H17.351V4.46104" fill="white"/>
</svg>
