<svg width="27" height="24" viewBox="0 0 27 24" fill="none" xmlns="http://www.w3.org/2000/svg">
<path d="M13.0485 14C12.6184 14 12.1979 14.1173 11.8403 14.3371C11.4827 14.5568 11.2039 14.8692 11.0393 15.2346C10.8747 15.6001 10.8317 16.0022 10.9156 16.3902C10.9995 16.7781 11.2066 17.1345 11.5107 17.4142C11.8149 17.6939 12.2024 17.8844 12.6242 17.9616C13.0461 18.0387 13.4834 17.9991 13.8808 17.8478C14.2781 17.6964 14.6178 17.44 14.8567 17.1111C15.0957 16.7822 15.2233 16.3956 15.2233 16C15.2233 15.4696 14.9941 14.9609 14.5863 14.5858C14.1784 14.2107 13.6253 14 13.0485 14Z" fill="white"/>
<path d="M14.2567 9.66294C13.8991 9.8827 13.4786 10 13.0485 10C12.4717 10 11.9186 9.78929 11.5107 9.41421C11.1029 9.03914 10.8738 8.53043 10.8738 8C10.8738 7.60444 11.0013 7.21776 11.2403 6.88886C11.4793 6.55996 11.8189 6.30362 12.2163 6.15224C12.6137 6.00087 13.0509 5.96126 13.4728 6.03843C13.8946 6.1156 14.2821 6.30608 14.5863 6.58579C14.8904 6.86549 15.0976 7.22186 15.1815 7.60982C15.2654 7.99778 15.2223 8.39992 15.0577 8.76537C14.8931 9.13082 14.6144 9.44318 14.2567 9.66294Z" fill="white"/>
</svg>
