<svg width="16" height="18" viewBox="0 0 16 18" fill="none" xmlns="http://www.w3.org/2000/svg">
<mask id="mask0_1922_865" style="mask-type:alpha" maskUnits="userSpaceOnUse" x="-2" y="-2" width="20" height="20">
<rect x="-2" y="-2" width="20" height="20" fill="#D9D9D9"/>
</mask>
<g mask="url(#mask0_1922_865)">
<path d="M0 18V14H16V18H0ZM3.5 10.5H4.5625L10.375 4.6875L9.83333 4.125L9.3125 3.625L3.5 9.4375V10.5ZM2 12V8.81423L10.375 0.4375C10.5278 0.284722 10.6933 0.173611 10.8716 0.104167C11.0499 0.0347222 11.2374 0 11.4341 0C11.6308 0 11.8194 0.0347222 12 0.104167C12.1806 0.173611 12.3479 0.284312 12.5022 0.43627L13.5625 1.5C13.7153 1.65278 13.8264 1.81944 13.8958 2C13.9653 2.18056 14 2.37081 14 2.57077C14 2.75823 13.9656 2.94256 13.8969 3.12377C13.8281 3.30498 13.7188 3.47057 13.5688 3.62054L5.1875 12H2ZM10.375 4.6875L9.83333 4.125L9.3125 3.625L10.375 4.6875Z" fill="#3C3C43" fill-opacity="0.6"/>
</g>
</svg>
