<svg width="20" height="14" viewBox="0 0 20 14" fill="none" xmlns="http://www.w3.org/2000/svg">
<path d="M11.75 7H16.25C16.4625 7 16.6406 6.92813 16.7844 6.78438C16.9281 6.64062 17 6.4625 17 6.25V3.75C17 3.5375 16.9281 3.35937 16.7844 3.21562C16.6406 3.07187 16.4625 3 16.25 3H11.75C11.5375 3 11.3594 3.07187 11.2156 3.21562C11.0719 3.35937 11 3.5375 11 3.75V6.25C11 6.4625 11.0719 6.64062 11.2156 6.78438C11.3594 6.92813 11.5375 7 11.75 7ZM14 5.25L15.6733 4.12931C15.7939 4.0431 15.9201 4.03454 16.0521 4.10363C16.184 4.17269 16.25 4.28399 16.25 4.4375C16.25 4.46528 16.1944 4.56944 16.0833 4.75L14.4167 5.875C14.2917 5.95833 14.1528 6 14 6C13.8472 6 13.7083 5.95833 13.5833 5.875L11.9167 4.75C11.8889 4.73611 11.8333 4.63194 11.75 4.4375C11.75 4.28793 11.8167 4.18109 11.95 4.11698C12.0833 4.05288 12.2111 4.0625 12.3333 4.14583L14 5.25ZM1.5 14C1.0875 14 0.734375 13.8531 0.440625 13.5594C0.146875 13.2656 0 12.9125 0 12.5V1.5C0 1.0875 0.146875 0.734376 0.440625 0.440626C0.734375 0.146876 1.0875 0 1.5 0H18.5C18.9125 0 19.2656 0.146876 19.5594 0.440626C19.8531 0.734376 20 1.0875 20 1.5V12.5C20 12.9125 19.8531 13.2656 19.5594 13.5594C19.2656 13.8531 18.9125 14 18.5 14H1.5ZM12.3502 12.5H18.5V1.5H1.5V12.5C2.22222 11.7222 3.05556 11.1111 4 10.6667C4.94444 10.2222 5.94097 10 6.98958 10C8.03819 10 9.01736 10.2257 9.92708 10.6771C10.8368 11.1285 11.6445 11.7361 12.3502 12.5ZM7 9C7.69444 9 8.28472 8.75694 8.77083 8.27083C9.25694 7.78472 9.5 7.19444 9.5 6.5C9.5 5.80556 9.25694 5.21528 8.77083 4.72917C8.28472 4.24306 7.69444 4 7 4C6.30556 4 5.71528 4.24306 5.22917 4.72917C4.74306 5.21528 4.5 5.80556 4.5 6.5C4.5 7.19444 4.74306 7.78472 5.22917 8.27083C5.71528 8.75694 6.30556 9 7 9ZM3.85417 12.5H10.0833C9.625 12.1944 9.13542 11.9514 8.61458 11.7708C8.09375 11.5903 7.55208 11.5 6.98958 11.5C6.42708 11.5 5.875 11.5799 5.33333 11.7396C4.79167 11.8993 4.29861 12.1528 3.85417 12.5ZM7 7.5C6.71667 7.5 6.47917 7.40417 6.2875 7.2125C6.09583 7.02083 6 6.78333 6 6.5C6 6.21667 6.09583 5.97917 6.2875 5.7875C6.47917 5.59583 6.71667 5.5 7 5.5C7.28333 5.5 7.52083 5.59583 7.7125 5.7875C7.90417 5.97917 8 6.21667 8 6.5C8 6.78333 7.90417 7.02083 7.7125 7.2125C7.52083 7.40417 7.28333 7.5 7 7.5Z" fill="#3E4648"/>
</svg>
