<svg width="12" height="12" viewBox="0 0 12 12" fill="none" xmlns="http://www.w3.org/2000/svg">
<mask id="mask0_2220_3624" style="mask-type:alpha" maskUnits="userSpaceOnUse" x="-4" y="-4" width="20" height="20">
<rect x="-4" y="-4" width="20" height="20" fill="#D9D9D9"/>
</mask>
<g mask="url(#mask0_2220_3624)">
<path d="M2.49579 5C1.80415 5 1.21528 4.75554 0.729167 4.26662C0.243056 3.77771 0 3.18743 0 2.49579C0 1.80415 0.244458 1.21528 0.733375 0.729167C1.22229 0.243056 1.81257 0 2.50421 0C3.19585 0 3.78472 0.244459 4.27083 0.733376C4.75694 1.22229 5 1.81257 5 2.50421C5 3.19585 4.75554 3.78472 4.26663 4.27083C3.77771 4.75694 3.18743 5 2.49579 5ZM2.5 3.5C2.77778 3.5 3.01389 3.40278 3.20833 3.20833C3.40278 3.01389 3.5 2.77778 3.5 2.5C3.5 2.22222 3.40278 1.98611 3.20833 1.79167C3.01389 1.59722 2.77778 1.5 2.5 1.5C2.22222 1.5 1.98611 1.59722 1.79167 1.79167C1.59722 1.98611 1.5 2.22222 1.5 2.5C1.5 2.77778 1.59722 3.01389 1.79167 3.20833C1.98611 3.40278 2.22222 3.5 2.5 3.5ZM9.49579 12C8.80415 12 8.21528 11.7555 7.72917 11.2666C7.24306 10.7777 7 10.1874 7 9.49579C7 8.80415 7.24446 8.21528 7.73338 7.72917C8.22229 7.24306 8.81257 7 9.50421 7C10.1958 7 10.7847 7.24446 11.2708 7.73338C11.7569 8.22229 12 8.81257 12 9.50421C12 10.1958 11.7555 10.7847 11.2666 11.2708C10.7777 11.7569 10.1874 12 9.49579 12ZM9.5 10.5C9.77778 10.5 10.0139 10.4028 10.2083 10.2083C10.4028 10.0139 10.5 9.77778 10.5 9.5C10.5 9.22222 10.4028 8.98611 10.2083 8.79167C10.0139 8.59722 9.77778 8.5 9.5 8.5C9.22222 8.5 8.98611 8.59722 8.79167 8.79167C8.59722 8.98611 8.5 9.22222 8.5 9.5C8.5 9.77778 8.59722 10.0139 8.79167 10.2083C8.98611 10.4028 9.22222 10.5 9.5 10.5ZM1.0625 12L0 10.9375L10.9375 0L12 1.0625L1.0625 12Z" fill="#1C1B1F"/>
</g>
</svg>
