<svg width="18" height="12" viewBox="0 0 18 12" fill="none" xmlns="http://www.w3.org/2000/svg">
<mask id="mask0_2216_1584" style="mask-type:alpha" maskUnits="userSpaceOnUse" x="-2" y="-4" width="21" height="20">
<rect x="-1.22925" y="-4" width="20" height="20" fill="#D9D9D9"/>
</mask>
<g mask="url(#mask0_2216_1584)">
<path d="M8.77083 9.5C9.74306 9.5 10.5694 9.15972 11.25 8.47917C11.9306 7.79861 12.2708 6.97222 12.2708 6C12.2708 5.02778 11.9306 4.20139 11.25 3.52083C10.5694 2.84028 9.74306 2.5 8.77083 2.5C7.79861 2.5 6.97222 2.84028 6.29167 3.52083C5.61111 4.20139 5.27083 5.02778 5.27083 6C5.27083 6.97222 5.61111 7.79861 6.29167 8.47917C6.97222 9.15972 7.79861 9.5 8.77083 9.5ZM8.77083 8C8.21528 8 7.74306 7.80556 7.35417 7.41667C6.96528 7.02778 6.77083 6.55556 6.77083 6C6.77083 5.44444 6.96528 4.97222 7.35417 4.58333C7.74306 4.19444 8.21528 4 8.77083 4C9.32639 4 9.79861 4.19444 10.1875 4.58333C10.5764 4.97222 10.7708 5.44444 10.7708 6C10.7708 6.55556 10.5764 7.02778 10.1875 7.41667C9.79861 7.80556 9.32639 8 8.77083 8ZM8.77083 12C6.96528 12 5.30556 11.5174 3.79167 10.5521C2.27778 9.58681 1.07639 8.3125 0.1875 6.72917C0.118056 6.61806 0.0694444 6.5016 0.0416667 6.37981C0.0138889 6.25802 0 6.13302 0 6.00481C0 5.8766 0.0138889 5.75 0.0416667 5.625C0.0694444 5.5 0.118056 5.38194 0.1875 5.27083C1.07639 3.6875 2.27778 2.41319 3.79167 1.44792C5.30556 0.482639 6.96528 0 8.77083 0C10.5764 0 12.2361 0.482639 13.75 1.44792C15.2639 2.41319 16.4653 3.6875 17.3542 5.27083C17.4236 5.38194 17.4722 5.4984 17.5 5.62019C17.5278 5.74198 17.5417 5.86698 17.5417 5.99519C17.5417 6.1234 17.5278 6.25 17.5 6.375C17.4722 6.5 17.4236 6.61806 17.3542 6.72917C16.4653 8.3125 15.2639 9.58681 13.75 10.5521C12.2361 11.5174 10.5764 12 8.77083 12ZM8.77083 10.5C10.3264 10.5 11.7639 10.0972 13.0833 9.29167C14.4028 8.48611 15.4167 7.38889 16.125 6C15.4167 4.61111 14.4028 3.51389 13.0833 2.70833C11.7639 1.90278 10.3264 1.5 8.77083 1.5C7.21528 1.5 5.77778 1.90278 4.45833 2.70833C3.13889 3.51389 2.125 4.61111 1.41667 6C2.125 7.38889 3.13889 8.48611 4.45833 9.29167C5.77778 10.0972 7.21528 10.5 8.77083 10.5Z" fill="#3E4648"/>
</g>
</svg>
