<svg width="13" height="15" viewBox="0 0 13 15" fill="none" xmlns="http://www.w3.org/2000/svg">
<mask id="mask0_2216_1568" style="mask-type:alpha" maskUnits="userSpaceOnUse" x="-4" y="-2" width="20" height="19">
<rect x="-3.04692" y="-1.87505" width="18.75" height="18.75" fill="#D9D9D9"/>
</mask>
<g mask="url(#mask0_2216_1568)">
<path d="M0.80078 15C0.605468 15 0.423176 14.9186 0.253906 14.7558C0.0846353 14.5931 0 14.414 0 14.2187V12.2265C0 11.1009 0.348307 10.1066 1.04492 9.24366C1.74153 8.38069 2.64322 7.83202 3.74999 7.59764C3.2552 7.96223 2.87109 8.41088 2.59765 8.94362C2.32421 9.47635 2.1875 10.0498 2.1875 10.664L2.16797 14.2187C2.16797 14.362 2.19075 14.4987 2.23632 14.6289C2.2819 14.7591 2.34375 14.8828 2.42187 15H0.80078ZM3.55468 15C3.33333 15 3.14778 14.9251 2.99804 14.7754C2.8483 14.6256 2.77343 14.4401 2.77343 14.2187V10.6648C2.77343 9.7919 3.0829 9.04621 3.70183 8.42772C4.32076 7.80923 5.06785 7.49999 5.9431 7.49999H9.48788C10.3631 7.49999 11.11 7.80923 11.7285 8.42772C12.347 9.04621 12.6562 9.78884 12.6562 10.6556V11.8443C12.6562 12.7111 12.3486 13.4538 11.7334 14.0722C11.1181 14.6907 10.3711 15 9.49217 15H3.55468ZM6.32811 5.91796C5.50137 5.91796 4.79989 5.63185 4.22368 5.05964C3.64747 4.48741 3.35937 3.7908 3.35937 2.9698C3.35937 2.14879 3.64747 1.44857 4.22368 0.869139C4.79989 0.289713 5.50137 0 6.32811 0C7.15486 0 7.85633 0.288105 8.43254 0.864315C9.00875 1.44052 9.29686 2.142 9.29686 2.96874C9.29686 3.79005 9.00875 4.48691 8.43254 5.05933C7.85633 5.63175 7.15486 5.91796 6.32811 5.91796Z" fill="#3E4648"/>
</g>
</svg>
