<svg width="8" height="12" viewBox="0 0 8 12" fill="none" xmlns="http://www.w3.org/2000/svg">
<mask id="mask0_2236_855" style="mask-type:alpha" maskUnits="userSpaceOnUse" x="-7" y="-5" width="22" height="22">
<rect x="-6.6773" y="-4.56416" width="21.1288" height="21.1288" fill="#D9D9D9"/>
</mask>
<g mask="url(#mask0_2236_855)">
<path d="M1.24136 12C0.897418 12 0.604534 11.8776 0.362712 11.6326C0.120904 11.3877 0 11.0933 0 10.7493C0 10.4054 0.122467 10.1125 0.3674 9.87069C0.612318 9.62888 0.90675 9.50797 1.2507 9.50797C1.59464 9.50797 1.88752 9.63044 2.12935 9.87537C2.37115 10.1203 2.49206 10.4147 2.49206 10.7587C2.49206 11.1026 2.36959 11.3955 2.12466 11.6373C1.87974 11.8791 1.58531 12 1.24136 12ZM6.52357 12C6.17963 12 5.88674 11.8776 5.64492 11.6326C5.40311 11.3877 5.28221 11.0933 5.28221 10.7493C5.28221 10.4054 5.40467 10.1125 5.64961 9.87069C5.89453 9.62888 6.18896 9.50797 6.5329 9.50797C6.87685 9.50797 7.16973 9.63044 7.41155 9.87537C7.65336 10.1203 7.77427 10.4147 7.77427 10.7587C7.77427 11.1026 7.6518 11.3955 7.40687 11.6373C7.16195 11.8791 6.86752 12 6.52357 12ZM1.24136 7.24605C0.897418 7.24605 0.604534 7.12358 0.362712 6.87865C0.120904 6.63373 0 6.3393 0 5.99535C0 5.65141 0.122467 5.35852 0.3674 5.1167C0.612318 4.87489 0.90675 4.75399 1.2507 4.75399C1.59464 4.75399 1.88752 4.87645 2.12935 5.12139C2.37115 5.3663 2.49206 5.66074 2.49206 6.00468C2.49206 6.34863 2.36959 6.64151 2.12466 6.88333C1.87974 7.12514 1.58531 7.24605 1.24136 7.24605ZM6.52357 7.24605C6.17963 7.24605 5.88674 7.12358 5.64492 6.87865C5.40311 6.63373 5.28221 6.3393 5.28221 5.99535C5.28221 5.65141 5.40467 5.35852 5.64961 5.1167C5.89453 4.87489 6.18896 4.75399 6.5329 4.75399C6.87685 4.75399 7.16973 4.87645 7.41155 5.12139C7.65336 5.3663 7.77427 5.66074 7.77427 6.00468C7.77427 6.34863 7.6518 6.64151 7.40687 6.88333C7.16195 7.12514 6.86752 7.24605 6.52357 7.24605ZM1.24136 2.49206C0.897418 2.49206 0.604534 2.36959 0.362712 2.12466C0.120904 1.87974 0 1.58531 0 1.24136C0 0.897419 0.122467 0.604535 0.3674 0.362713C0.612318 0.120905 0.90675 0 1.2507 0C1.59464 0 1.88752 0.122466 2.12935 0.367399C2.37115 0.612318 2.49206 0.906749 2.49206 1.25069C2.49206 1.59464 2.36959 1.88752 2.12466 2.12935C1.87974 2.37115 1.58531 2.49206 1.24136 2.49206ZM6.52357 2.49206C6.17963 2.49206 5.88674 2.36959 5.64492 2.12466C5.40311 1.87974 5.28221 1.58531 5.28221 1.24136C5.28221 0.897419 5.40467 0.604535 5.64961 0.362713C5.89453 0.120905 6.18896 0 6.5329 0C6.87685 0 7.16973 0.122466 7.41155 0.367399C7.65336 0.612318 7.77427 0.906749 7.77427 1.25069C7.77427 1.59464 7.6518 1.88752 7.40687 2.12935C7.16195 2.37115 6.86752 2.49206 6.52357 2.49206Z" fill="#1C1B1F"/>
</g>
</svg>
