<svg width="19" height="18" viewBox="0 0 19 18" fill="none" xmlns="http://www.w3.org/2000/svg">
<mask id="mask0_2098_1223" style="mask-type:alpha" maskUnits="userSpaceOnUse" x="-4" y="-3" width="25" height="24">
<rect x="-3.25769" y="-3" width="24" height="24" fill="#D9D9D9"/>
</mask>
<g mask="url(#mask0_2098_1223)">
<path d="M16.8448 18L10.4519 11.7C9.94454 12.1 9.36106 12.4167 8.70148 12.65C8.04189 12.8833 7.34002 13 6.59587 13C4.75241 13 3.19223 12.3708 1.91534 11.1125C0.638447 9.85417 0 8.31667 0 6.5C0 4.68333 0.638447 3.14583 1.91534 1.8875C3.19223 0.629167 4.75241 0 6.59587 0C8.43933 0 9.99951 0.629167 11.2764 1.8875C12.5533 3.14583 13.1917 4.68333 13.1917 6.5C13.1917 7.23333 13.0734 7.925 12.8366 8.575C12.5998 9.225 12.2785 9.8 11.8726 10.3L18.2655 16.6L16.8448 18ZM6.59587 11C7.86431 11 8.94248 10.5625 9.83038 9.6875C10.7183 8.8125 11.1622 7.75 11.1622 6.5C11.1622 5.25 10.7183 4.1875 9.83038 3.3125C8.94248 2.4375 7.86431 2 6.59587 2C5.32743 2 4.24926 2.4375 3.36136 3.3125C2.47345 4.1875 2.0295 5.25 2.0295 6.5C2.0295 7.75 2.47345 8.8125 3.36136 9.6875C4.24926 10.5625 5.32743 11 6.59587 11Z" fill="#3C3C43"/>
</g>
</svg>
