<svg width="26" height="24" viewBox="0 0 26 24" fill="none" xmlns="http://www.w3.org/2000/svg">
<path d="M12.7523 14C12.332 14 11.9211 14.1173 11.5715 14.3371C11.222 14.5568 10.9496 14.8692 10.7887 15.2346C10.6279 15.6001 10.5858 16.0022 10.6678 16.3902C10.7498 16.7781 10.9522 17.1345 11.2495 17.4142C11.5467 17.6939 11.9254 17.8844 12.3377 17.9616C12.75 18.0387 13.1773 17.9991 13.5657 17.8478C13.9541 17.6964 14.286 17.44 14.5195 17.1111C14.7531 16.7822 14.8777 16.3956 14.8777 16C14.8777 15.4696 14.6538 14.9609 14.2552 14.5858C13.8566 14.2107 13.316 14 12.7523 14Z" fill="#3C3C43"/>
<path d="M13.9331 9.66294C13.5836 9.8827 13.1727 10 12.7523 10C12.1887 10 11.6481 9.78929 11.2495 9.41421C10.8509 9.03914 10.627 8.53043 10.627 8C10.627 7.60444 10.7516 7.21776 10.9851 6.88886C11.2187 6.55996 11.5506 6.30362 11.939 6.15224C12.3274 6.00087 12.7547 5.96126 13.167 6.03843C13.5793 6.1156 13.958 6.30608 14.2552 6.58579C14.5525 6.86549 14.7549 7.22186 14.8369 7.60982C14.9189 7.99778 14.8768 8.39992 14.716 8.76537C14.5551 9.13082 14.2827 9.44318 13.9331 9.66294Z" fill="#3C3C43"/>
</svg>
